<svg xmlns="http://www.w3.org/2000/svg" width="252.25" height="267.157" viewBox="0 0 252.25 267.157">
  <g id="Business_deal-pana" data-name="Business deal-pana" transform="translate(-51.537 -64.259)">
    <g id="freepik--background-simple--inject-2" transform="translate(51.537 64.259)">
      <path id="Path_1728" data-name="Path 1728" d="M259.439,124.952c-19.373-2.415-39.274,7.529-58.145,2.542-28.446-7.548-39.159-43.88-65.128-57.732C117.308,59.7,92.642,64.044,76.319,77.825s-24.64,35.614-24.78,56.988,7.625,44.376,18.325,62.9h0a123.9,123.9,0,0,0,57.719,49.268c30.194,12.485,65.579,15.885,96.23,10.63,21.724-3.742,42.991-12.86,58.456-28.593s24.424-38.5,20.663-60.222S281.309,127.672,259.439,124.952Z" transform="translate(-51.537 -64.259)" fill="#ebebeb"/>
    </g>
    <g id="freepik--Characters--inject-2" transform="translate(89.929 72.982)">
      <path id="Path_1729" data-name="Path 1729" d="M145.472,437l.515,15.809L150,465.2a1.62,1.62,0,0,1-1.144,2.071h0a1.614,1.614,0,0,1-1.449-.337c-2.542-2.179-11.837-10.236-11.812-11.393,0-1.347-1.658-16.647-1.658-16.647Z" transform="translate(-119.974 -208.886)" fill="#003f5a"/>
      <path id="Path_1730" data-name="Path 1730" d="M149.763,477.267l-13.343-12.8.038.635a2.44,2.44,0,0,0,.667,1.55c1.067,1.118,4.086,4.155,11.126,10.242a1.614,1.614,0,0,0,1.493.337Z" transform="translate(-120.878 -218.902)" fill="#e0e0e0"/>
      <path id="Path_1731" data-name="Path 1731" d="M140.3,456.1a.978.978,0,0,1,.337,1.271.934.934,0,0,1-1.271.349,1.029,1.029,0,0,1-.356-1.341.978.978,0,0,1,1.341-.216" transform="translate(-121.781 -215.808)" fill="#fff"/>
      <path id="Path_1732" data-name="Path 1732" d="M151.119,472.955c.089.038.4-.813,1.315-1.309a4.988,4.988,0,0,1,1.8-.451c0-.038-.191-.146-.565-.178a2.5,2.5,0,0,0-1.4.324,2.542,2.542,0,0,0-1,1.029C151.087,472.707,151.081,472.942,151.119,472.955Z" transform="translate(-126.231 -221.287)" fill="#263238"/>
      <path id="Path_1733" data-name="Path 1733" d="M153.087,476.572a11.867,11.867,0,0,1,1.36-.762,12.626,12.626,0,0,1,1.531-.28,1.773,1.773,0,0,0-1.652-.044A1.865,1.865,0,0,0,153.087,476.572Z" transform="translate(-126.953 -222.852)" fill="#263238"/>
      <path id="Path_1734" data-name="Path 1734" d="M147.59,468.835a17.055,17.055,0,0,1,2.027-1.309,16.275,16.275,0,0,1,2.313-.68A4.448,4.448,0,0,0,147.59,468.835Z" transform="translate(-124.951 -219.753)" fill="#263238"/>
      <path id="Path_1735" data-name="Path 1735" d="M146.71,461.956c.051.089.9-.324,2.033-.426s2.052.114,2.078,0a3.126,3.126,0,0,0-2.11-.368,3.177,3.177,0,0,0-2,.794Z" transform="translate(-124.63 -217.678)" fill="#263238"/>
      <path id="Path_1736" data-name="Path 1736" d="M146.289,454.654a7.944,7.944,0,0,1,2.1-.5,7.721,7.721,0,0,1,2.122.413c0-.038-.159-.222-.534-.413a3.457,3.457,0,0,0-1.595-.343,3.514,3.514,0,0,0-1.582.407C146.441,454.426,146.263,454.623,146.289,454.654Z" transform="translate(-124.476 -215.015)" fill="#263238"/>
      <path id="Path_1737" data-name="Path 1737" d="M148.139,451.249a1.391,1.391,0,0,0,0-.635,4.232,4.232,0,0,0-.559-1.538,1.906,1.906,0,0,0-.839-.832.635.635,0,0,0-.724.184,1.029,1.029,0,0,0-.21.731,2.287,2.287,0,0,0,2.122,2,2.656,2.656,0,0,0,2.542-1.531.928.928,0,0,0,0-.769.635.635,0,0,0-.686-.3,2.244,2.244,0,0,0-1.01.6,4.6,4.6,0,0,0-1.01,1.271,1.4,1.4,0,0,0-.21.559,7.453,7.453,0,0,1,1.379-1.658,2.167,2.167,0,0,1,.9-.5.343.343,0,0,1,.375.165.635.635,0,0,1-.032.5,2.383,2.383,0,0,1-2.211,1.309,2,2,0,0,1-1.824-1.677.743.743,0,0,1,.127-.515.343.343,0,0,1,.394-.108,1.658,1.658,0,0,1,.724.693A6.169,6.169,0,0,1,148.139,451.249Z" transform="translate(-124.299 -212.969)" fill="#263238"/>
      <path id="Path_1738" data-name="Path 1738" d="M193.646,440.416l-.82,11.825s11.748,4.8,11.806,6.989l-22.982-.762.521-18.477Z" transform="translate(-137.37 -209.976)" fill="#003f5a"/>
      <path id="Path_1739" data-name="Path 1739" d="M187.7,457.33a.947.947,0,0,0-.705,1.061.909.909,0,0,0,1.036.693.991.991,0,0,0,.718-1.118.934.934,0,0,0-1.15-.6" transform="translate(-139.314 -216.298)" fill="#e0e0e0"/>
      <path id="Path_1740" data-name="Path 1740" d="M181.65,468.022l.127-1.862,21.991,1.43s1,.483.864,1.195Z" transform="translate(-137.37 -219.518)" fill="#e0e0e0"/>
      <path id="Path_1741" data-name="Path 1741" d="M198.615,459.049c0,.108-.572.14-1.137.483s-.87.807-.972.756.083-.686.775-1.093A1.345,1.345,0,0,1,198.615,459.049Z" transform="translate(-142.776 -216.887)" fill="#263238"/>
      <path id="Path_1742" data-name="Path 1742" d="M202.673,460.771c0,.108-.47.286-.87.75s-.521.959-.635.947-.159-.635.343-1.207S202.673,460.663,202.673,460.771Z" transform="translate(-144.459 -217.535)" fill="#263238"/>
      <path id="Path_1743" data-name="Path 1743" d="M205.511,464.315c-.1,0-.241-.54.07-1.15s.839-.832.883-.737-.286.413-.534.915S205.625,464.309,205.511,464.315Z" transform="translate(-146.025 -218.15)" fill="#263238"/>
      <path id="Path_1744" data-name="Path 1744" d="M198.286,454.578c-.051.1-.559-.07-1.195-.044s-1.137.2-1.195.1.432-.483,1.182-.5S198.344,454.5,198.286,454.578Z" transform="translate(-142.563 -215.135)" fill="#263238"/>
      <path id="Path_1745" data-name="Path 1745" d="M197.863,449.954a2.091,2.091,0,0,1-1.175-.045,5.015,5.015,0,0,1-1.195-.407,5.3,5.3,0,0,1-.635-.375,1.271,1.271,0,0,1-.337-.28.483.483,0,0,1-.032-.6.635.635,0,0,1,.5-.241,1.606,1.606,0,0,1,.426.07,4.45,4.45,0,0,1,.712.273,4.01,4.01,0,0,1,1.036.731c.515.515.686.934.635.959s-.3-.324-.832-.75a4.386,4.386,0,0,0-1-.635,4.161,4.161,0,0,0-.635-.222c-.241-.076-.451-.083-.515,0s-.032.057,0,.127a1.27,1.27,0,0,0,.248.21,6.812,6.812,0,0,0,.6.362,6.056,6.056,0,0,0,1.1.464A9.19,9.19,0,0,1,197.863,449.954Z" transform="translate(-142.019 -212.901)" fill="#263238"/>
      <path id="Path_1746" data-name="Path 1746" d="M199.454,449.242a1.906,1.906,0,0,1-.267-1.125,3.889,3.889,0,0,1,.515-1.944.947.947,0,0,1,.756-.553.54.54,0,0,1,.47.337,1.468,1.468,0,0,1,.1.426,2.421,2.421,0,0,1,0,.775,2.592,2.592,0,0,1-.527,1.169c-.47.585-.94.705-.953.635s.362-.26.731-.82a2.713,2.713,0,0,0,.4-1.067,2.6,2.6,0,0,0,0-.667c-.032-.248-.114-.445-.21-.426a.8.8,0,0,0-.413.369,3.646,3.646,0,0,0-.305.635,4.054,4.054,0,0,0-.26,1.144C199.409,448.8,199.517,449.229,199.454,449.242Z" transform="translate(-143.762 -212.029)" fill="#263238"/>
      <path id="Path_1747" data-name="Path 1747" d="M126.17,254.533l3.393,127.1,18.134-.54,4.321-130.9Z" transform="translate(-117.141 -140.777)" fill="#263238"/>
      <path id="Path_1748" data-name="Path 1748" d="M174.731,249.86s13.458,53.881,13.871,63.069-2.878,66.64-2.878,66.64H167.971l1.487-65.445L156,258.806l3.26-8.66Z" transform="translate(-128.017 -140.653)" fill="#263238"/>
      <path id="Path_1749" data-name="Path 1749" d="M166.239,260.27a.781.781,0,0,1,0,.178v.5c0,.47-.038,1.112-.07,1.938-.076,1.7-.191,4.13-.324,7.116-.311,6.03-.737,14.322-1.207,23.509s-.966,17.442-1.271,23.471c-.178,2.986-.33,5.407-.432,7.116-.057.82-.1,1.468-.133,1.906a4.319,4.319,0,0,1-.044.5.725.725,0,0,1,0,.172.7.7,0,0,1,0-.172v-.5c0-.47.044-1.118.076-1.938.076-1.7.191-4.13.324-7.116.311-6.03.737-14.322,1.2-23.509s.966-17.442,1.3-23.471c.178-2.986.324-5.407.432-7.11.057-.82.1-1.468.133-1.938a4.456,4.456,0,0,1,.044-.5A.457.457,0,0,1,166.239,260.27Z" transform="translate(-130.479 -144.449)" fill="#455a64"/>
      <path id="Path_1750" data-name="Path 1750" d="M152.959,140.165s6.589,32.685,6.684,41.891,3.329,27.2,3.329,27.2h-28.5l-.635-49.8L131.8,144.612l4.283-6.112Z" transform="translate(-119.194 -100.051)" fill="#f5f5f5"/>
      <path id="Path_1751" data-name="Path 1751" d="M165.65,142.63s6.805,2,8.6,4.518c1.417,1.989,3.336,39.579,3.336,39.579l2.9,33.117-2.853-.267-4.028-12.4Z" transform="translate(-131.536 -101.556)" fill="#003f5a"/>
      <path id="Path_1752" data-name="Path 1752" d="M179.19,149.74,198.4,167.372l23.643-7.663,4.715,9.931L201.53,181.078c-3.6,1.538-5.865.693-8.368-1.315l-13.235-10.6Z" transform="translate(-136.473 -104.149)" fill="#003f5a"/>
      <path id="Path_1753" data-name="Path 1753" d="M239.158,170.255a.527.527,0,0,1-.216.705.515.515,0,0,1-.7-.216.508.508,0,0,1,.21-.7A.527.527,0,0,1,239.158,170.255Z" transform="translate(-157.98 -111.53)" fill="#263238"/>
      <path id="Path_1754" data-name="Path 1754" d="M238.692,171.041a.438.438,0,0,1-.159,0,.534.534,0,0,1-.318-.261.559.559,0,0,1-.038-.407.546.546,0,0,1,.667-.356.54.54,0,0,1,.318.261.534.534,0,0,1,.038.407.521.521,0,0,1-.261.318.5.5,0,0,1-.248.038Zm0-1.036a.534.534,0,0,0-.235.057.515.515,0,0,0-.241.3.5.5,0,0,0,.718.585.483.483,0,0,0,.241-.292.515.515,0,0,0-.038-.388.5.5,0,0,0-.445-.267Z" transform="translate(-157.972 -111.535)" fill="#263238"/>
      <path id="Path_1755" data-name="Path 1755" d="M242.278,169.512a.527.527,0,0,1-.216.705.515.515,0,0,1-.7-.216.508.508,0,0,1,.21-.7.515.515,0,0,1,.705.21Z" transform="translate(-159.118 -111.258)" fill="#263238"/>
      <path id="Path_1756" data-name="Path 1756" d="M241.812,170.3a.438.438,0,0,1-.159,0,.534.534,0,0,1-.318-.261.536.536,0,0,1,.947-.5.534.534,0,0,1,.038.407.54.54,0,0,1-.26.318A.572.572,0,0,1,241.812,170.3Zm0-1.042a.546.546,0,0,0-.235.064.5.5,0,0,0-.2.68.477.477,0,0,0,.3.241.5.5,0,1,0,.286-.959.539.539,0,0,0-.152-.025Z" transform="translate(-159.109 -111.264)" fill="#263238"/>
      <path id="Path_1757" data-name="Path 1757" d="M245.24,168.913a.515.515,0,0,1-.21.705.527.527,0,0,1-.705-.216.515.515,0,0,1,.216-.7.508.508,0,0,1,.7.21Z" transform="translate(-160.199 -111.039)" fill="#263238"/>
      <path id="Path_1758" data-name="Path 1758" d="M244.786,169.706a.439.439,0,0,1-.159,0,.534.534,0,0,1-.356-.635.508.508,0,0,1,.26-.311.534.534,0,0,1,.724.216h0a.54.54,0,0,1-.222.724.572.572,0,0,1-.248.006Zm0-1.036a.534.534,0,0,0-.235.057.5.5,0,0,0-.2.68.476.476,0,0,0,.292.241.515.515,0,0,0,.388-.038.5.5,0,0,0,.2-.68h0a.5.5,0,0,0-.451-.261Z" transform="translate(-160.196 -111.051)" fill="#263238"/>
      <path id="Path_1759" data-name="Path 1759" d="M247.01,165.827l1.83-.667,4.2,8.845-1.785.762Z" transform="translate(-161.2 -109.771)" fill="#e0e0e0"/>
      <path id="Path_1760" data-name="Path 1760" d="M180.14,160.71a5.718,5.718,0,0,1,.108.985c.07.7.165,1.6.28,2.694.261,2.332.635,5.439,1,8.9s.693,6.614.832,8.9c.076,1.144.108,2.071.114,2.713a4.81,4.81,0,0,1-.032.991,5.835,5.835,0,0,1-.1-.985c-.044-.635-.114-1.563-.222-2.7-.2-2.275-.54-5.42-.928-8.9s-.718-6.608-.909-8.9c-.1-1.144-.146-2.071-.172-2.713a4.982,4.982,0,0,1,.019-.985Z" transform="translate(-136.806 -108.149)" fill="#263238"/>
      <path id="Path_1761" data-name="Path 1761" d="M185.206,167.65A36.957,36.957,0,0,1,184,172.39a37.266,37.266,0,0,1-1.519,4.645,36.218,36.218,0,0,1,1.2-4.74,36.214,36.214,0,0,1,1.525-4.645Z" transform="translate(-137.672 -110.679)" fill="#263238"/>
      <path id="Path_1762" data-name="Path 1762" d="M208.7,183.378a2.008,2.008,0,0,1-.426-.839,6.081,6.081,0,0,1,.28-4.448,2.116,2.116,0,0,1,.527-.782,8.362,8.362,0,0,0-.381,6.068Z" transform="translate(-146.968 -114.201)" fill="#263238"/>
      <path id="Path_1763" data-name="Path 1763" d="M205.14,219.01l2.459.191-.972,10.255-2.376-.267Z" transform="translate(-145.61 -129.405)" fill="#e0e0e0"/>
      <path id="Path_1764" data-name="Path 1764" d="M128.849,139.62l-13.261,8.457a8.6,8.6,0,0,0-3.177,9.766L122.577,189.8l-3.666,29.037,29.063-1.233-.712-12.708L144.8,182.121a45.113,45.113,0,0,0-3.12-12.288Z" transform="translate(-111.96 -100.459)" fill="#003f5a"/>
      <path id="Path_1765" data-name="Path 1765" d="M116.214,164.284l13.261,27.754a8.209,8.209,0,0,0,5.515,4.448l36.8,8.718.94-10.713L144.641,183.95,130.51,156.831a8.069,8.069,0,0,0-11.323-3.177h0A8.063,8.063,0,0,0,116.214,164.284Z" transform="translate(-113.177 -105.153)" fill="#003f5a"/>
      <path id="Path_1766" data-name="Path 1766" d="M174.753,194.811a.5.5,0,0,1-.153-.038l-.432-.146-1.665-.6-6.163-2.268L145.569,184h-.057v-.064l-2.446-4.842c-2.3-4.486-4.594-8.711-6.742-12.524-1.074-1.906-2.11-3.7-3.088-5.382l-1.423-2.427c-.229-.394-.457-.769-.7-1.118a9.376,9.376,0,0,0-.75-1,8.832,8.832,0,0,0-3.533-2.542,7.974,7.974,0,0,0-3.26-.585,5.775,5.775,0,0,0-2.732.731.755.755,0,0,1,.152-.108,2.79,2.79,0,0,1,.489-.273,5.821,5.821,0,0,1,2.084-.477,8.07,8.07,0,0,1,3.329.534,9.035,9.035,0,0,1,3.647,2.586,9.532,9.532,0,0,1,.775,1.017c.254.362.489.737.712,1.131l1.442,2.414q1.487,2.542,3.12,5.375c2.16,3.812,4.448,8.025,6.773,12.517.845,1.658,1.671,3.291,2.44,4.854l-.089-.083,20.733,7.866,6.125,2.357,1.646.635.426.172Z" transform="translate(-115.198 -105.473)" fill="#263238"/>
      <path id="Path_1767" data-name="Path 1767" d="M195.252,228.8a.521.521,0,1,1-.521-.521A.521.521,0,0,1,195.252,228.8Z" transform="translate(-141.949 -132.785)" fill="#263238"/>
      <path id="Path_1768" data-name="Path 1768" d="M194.694,229.327a.534.534,0,1,1,.534-.534.534.534,0,0,1-.534.534Zm0-1.036a.5.5,0,1,0,.5.5.5.5,0,0,0-.5-.5Z" transform="translate(-141.931 -132.778)" fill="#263238"/>
      <path id="Path_1769" data-name="Path 1769" d="M198.4,229.621a.521.521,0,1,1-.521-.521A.521.521,0,0,1,198.4,229.621Z" transform="translate(-143.098 -133.084)" fill="#263238"/>
      <path id="Path_1770" data-name="Path 1770" d="M197.824,230.147a.534.534,0,1,1,.534-.534.54.54,0,0,1-.534.534Zm0-1.036a.5.5,0,1,0,.5.5.5.5,0,0,0-.5-.5Z" transform="translate(-143.072 -133.077)" fill="#263238"/>
      <circle id="Ellipse_77" data-name="Ellipse 77" cx="0.521" cy="0.521" r="0.521" transform="translate(56.073 96.569)" fill="#263238"/>
      <path id="Path_1771" data-name="Path 1771" d="M200.694,231.017a.534.534,0,1,1,.534-.534A.54.54,0,0,1,200.694,231.017Zm0-1.036a.5.5,0,1,0,.5.5A.5.5,0,0,0,200.694,229.982Z" transform="translate(-144.118 -133.394)" fill="#263238"/>
      <path id="Path_1772" data-name="Path 1772" d="M173.8,215.006a.553.553,0,0,1-.178,0l-.515-.114-1.982-.477-7.282-1.792c-6.144-1.506-14.614-3.641-24.03-5.82-1.175-.28-2.338-.5-3.488-.813a7.771,7.771,0,0,1-3.145-1.569,9.219,9.219,0,0,1-1.906-2.8l-1.385-2.9L125.1,188.669l-3.177-6.786c-.356-.788-.635-1.4-.845-1.849l-.216-.489a.9.9,0,0,1-.064-.165,1.533,1.533,0,0,1,.1.152c.057.1.14.28.241.47l.909,1.83c.782,1.614,1.906,3.908,3.279,6.735s3.005,6.252,4.823,10.02c.451.94.921,1.906,1.392,2.891a9.131,9.131,0,0,0,1.862,2.694,7.409,7.409,0,0,0,3.018,1.493c1.125.3,2.3.527,3.476.807,9.41,2.186,17.88,4.352,24.011,5.915,3.044.8,5.515,1.442,7.256,1.906l1.963.54.508.146Z" transform="translate(-115.183 -114.956)" fill="#263238"/>
      <path id="Path_1773" data-name="Path 1773" d="M149.729,232.72a3.813,3.813,0,0,1-.438.369c-.3.222-.724.527-1.271.9a20.664,20.664,0,0,1-4.575,2.376,10.529,10.529,0,0,1-5.121.515,6.939,6.939,0,0,1-1.512-.438,1.525,1.525,0,0,1-.5-.273,16.573,16.573,0,0,0,2.046.476,11.113,11.113,0,0,0,4.981-.591,24.837,24.837,0,0,0,4.556-2.262A15.386,15.386,0,0,1,149.729,232.72Z" transform="translate(-120.838 -134.404)" fill="#263238"/>
      <path id="Path_1774" data-name="Path 1774" d="M151.189,238.52a.934.934,0,0,1,.089.235,5.914,5.914,0,0,1,.172.712,7.993,7.993,0,0,1,0,2.7A8.317,8.317,0,0,1,149.8,245.8a8.152,8.152,0,0,1-8.972,2.542,8.26,8.26,0,0,1-3.3-2.256,7.969,7.969,0,0,1-1.423-2.294,6.7,6.7,0,0,1-.222-.7c-.038-.159-.057-.248-.044-.248a9.659,9.659,0,0,0,1.862,3.082,8.2,8.2,0,0,0,3.228,2.122,7.942,7.942,0,0,0,8.629-2.408,8.2,8.2,0,0,0,1.658-3.488A9.671,9.671,0,0,0,151.189,238.52Z" transform="translate(-120.665 -136.519)" fill="#263238"/>
      <path id="Path_1775" data-name="Path 1775" d="M140.786,93.207l.083,23.675a7.04,7.04,0,0,0,7.415,6.989h0a7.053,7.053,0,0,0,6.672-7.034v-3.457s6.024-.585,6.437-6.551c.2-2.885.127-8.857,0-14.265a11.132,11.132,0,0,0-10.5-10.865h-.578C144.1,81.675,140.6,86.974,140.786,93.207Z" transform="translate(-122.468 -79.341)" fill="#b78876"/>
      <path id="Path_1776" data-name="Path 1776" d="M158.716,129.886a13.921,13.921,0,0,1-7.656-2.656s1.595,4.4,7.58,4.2Z" transform="translate(-126.216 -95.941)" fill="#aa6550"/>
      <path id="Path_1777" data-name="Path 1777" d="M169.919,103.84a.858.858,0,0,1-.877.813.813.813,0,0,1-.832-.82.858.858,0,0,1,.87-.813.82.82,0,0,1,.839.82Z" transform="translate(-132.469 -87.114)" fill="#263238"/>
      <path id="Path_1778" data-name="Path 1778" d="M169.221,102.149c-.108.108-.731-.407-1.646-.457s-1.62.369-1.709.254.07-.248.375-.445a2.376,2.376,0,0,1,1.379-.343,2.224,2.224,0,0,1,1.3.508C169.2,101.895,169.278,102.1,169.221,102.149Z" transform="translate(-131.606 -86.434)" fill="#263238"/>
      <path id="Path_1779" data-name="Path 1779" d="M155.883,103.73a.851.851,0,0,1-.87.813.813.813,0,0,1-.832-.82.851.851,0,0,1,.87-.813.813.813,0,0,1,.832.82Z" transform="translate(-127.354 -87.074)" fill="#263238"/>
      <path id="Path_1780" data-name="Path 1780" d="M154.846,101.828c-.114.1-.731-.413-1.652-.464s-1.614.375-1.709.254.076-.248.381-.445a2.3,2.3,0,0,1,1.372-.337,2.262,2.262,0,0,1,1.309.5C154.814,101.574,154.9,101.777,154.846,101.828Z" transform="translate(-126.361 -86.316)" fill="#263238"/>
      <path id="Path_1781" data-name="Path 1781" d="M161.36,109.349a6.1,6.1,0,0,1,1.506-.184c.235,0,.464-.044.508-.2a1.2,1.2,0,0,0-.114-.7c-.191-.585-.388-1.188-.591-1.83a26.463,26.463,0,0,1-1.271-4.753,28.361,28.361,0,0,1,1.671,4.638c.191.635.381,1.271.559,1.836a1.341,1.341,0,0,1,.07.928.591.591,0,0,1-.407.318,1.531,1.531,0,0,1-.4,0A5.954,5.954,0,0,1,161.36,109.349Z" transform="translate(-129.972 -86.626)" fill="#263238"/>
      <path id="Path_1782" data-name="Path 1782" d="M154.954,98.944c-.108.248-1.017.076-2.1.146s-1.976.311-2.1.076c-.057-.108.108-.337.47-.559a3.463,3.463,0,0,1,1.582-.451,3.514,3.514,0,0,1,1.62.286C154.814,98.62,155,98.83,154.954,98.944Z" transform="translate(-126.1 -85.338)" fill="#263238"/>
      <path id="Path_1783" data-name="Path 1783" d="M169.213,98.681c-.172.2-.794-.057-1.55-.108s-1.411.057-1.55-.165c-.057-.108.057-.311.349-.5a2.262,2.262,0,0,1,2.5.222C169.213,98.363,169.314,98.579,169.213,98.681Z" transform="translate(-131.699 -85.151)" fill="#263238"/>
      <path id="Path_1784" data-name="Path 1784" d="M138.785,106.655c-.1-.051-4.035-1.449-4.136,2.643s4.022,3.349,4.035,3.234S138.785,106.655,138.785,106.655Z" transform="translate(-120.232 -88.341)" fill="#b78876"/>
      <path id="Path_1785" data-name="Path 1785" d="M138.062,111.705a1.929,1.929,0,0,1-.191.1.7.7,0,0,1-.534,0,1.76,1.76,0,0,1-.775-1.6,2.364,2.364,0,0,1,.222-1.017.839.839,0,0,1,.553-.534.356.356,0,0,1,.413.21c.051.114,0,.2.044.2s.089-.07.064-.235a.483.483,0,0,0-.159-.261.527.527,0,0,0-.388-.114,1,1,0,0,0-.762.635,2.4,2.4,0,0,0-.273,1.131,1.843,1.843,0,0,0,1,1.792.781.781,0,0,0,.635-.089C138.056,111.8,138.081,111.712,138.062,111.705Z" transform="translate(-120.824 -89.096)" fill="#aa6550"/>
      <path id="Path_1786" data-name="Path 1786" d="M137.381,96.89a2.154,2.154,0,0,1,1.906,1.118c.229.6.254,1.271.483,1.862a1.449,1.449,0,0,0,1.43,1.048,1.271,1.271,0,0,0,.909-.883,3.52,3.52,0,0,0,.083-1.315c-.127-1.906-.426-3.812-.388-5.763a9.823,9.823,0,0,1,1.55-5.477,5.375,5.375,0,0,1,4.931-2.414c1.271.178,2.389.9,3.634,1.15a5.007,5.007,0,0,0,4.225-1.144,1.442,1.442,0,0,1,.2-.146,1.1,1.1,0,0,0,.464-1.271,1.081,1.081,0,0,0-.216-.407c-2.37-2.453-6.843-3.355-10.166-2.713a11.952,11.952,0,0,0-8.177,5.814c-1.595,3.018-1.423,7.345-.813,10.522" transform="translate(-121.09 -78.843)" fill="#263238"/>
      <path id="Path_1787" data-name="Path 1787" d="M157.9,114.88c.152,0,.152.985,1,1.69s1.906.6,1.906.737-.235.2-.686.2a2.446,2.446,0,0,1-1.6-.553,2.16,2.16,0,0,1-.775-1.417C157.694,115.121,157.808,114.874,157.9,114.88Z" transform="translate(-128.65 -91.438)" fill="#263238"/>
      <path id="Path_1788" data-name="Path 1788" d="M247.81,165.215s4.48-3.933,5.325-4.225,7.593-.413,8.044-.076,7.282,4.079,6.151,4.657-5.865-2.135-5.865-2.135l-.794.108s4.13,2.2,4.861,3.05.032,1.722-.737,1.36-4.314-2.4-4.594-2.326,3.774,2.446,4.149,2.891c.5.585.178,1.728-.6,1.4-.457-.191-4.194-2.669-4.194-2.669a37.381,37.381,0,0,1,3.024,2.764c.33.635-.3,1.214-.959.813-.445-.273-2.37-2.167-2.967-2.542,0,0-.635-.051-1.633.991s-4.816,2.459-4.816,2.459Z" transform="translate(-161.492 -108.149)" fill="#b78876"/>
      <path id="Path_1789" data-name="Path 1789" d="M273.144,167.011a3.6,3.6,0,0,1-1.449-.089,8.438,8.438,0,0,1-1.519-.457c-.527-.254-1.106-.546-1.716-.858l-1.271-.635h.089a21.777,21.777,0,0,1-3.469-.1,20.084,20.084,0,0,1,3.463-.248h.083l1.271.635,1.658.87a9.974,9.974,0,0,0,1.442.508C272.6,166.9,273.15,166.954,273.144,167.011Z" transform="translate(-167.326 -109.577)" fill="#aa6550"/>
      <path id="Path_1790" data-name="Path 1790" d="M250.43,167.807a1.519,1.519,0,0,0,1.684.578c.635-.133,1.188-.47,1.8-.635,1.836-.527,3.876.451,5.68-.165.254-.089.534-.273.508-.534s-.3-.369-.54-.445l-6.023-1.906" transform="translate(-162.447 -109.603)" fill="#b78876"/>
      <path id="Path_1791" data-name="Path 1791" d="M253.525,164.66a2.37,2.37,0,0,1,.673.14c.426.114,1.036.292,1.792.515l2.643.8.762.235c.241.1.591.114.82.489a.527.527,0,0,1-.1.585,1.093,1.093,0,0,1-.432.286,4.059,4.059,0,0,1-.915.2,24.429,24.429,0,0,1-3.4-.184,4.843,4.843,0,0,0-1.417.133c-.426.114-.82.3-1.195.438a2.224,2.224,0,0,1-1.906,0c-.407-.235-.47-.527-.457-.521a1.906,1.906,0,0,0,.521.4,2.167,2.167,0,0,0,1.766-.127,12.806,12.806,0,0,1,1.207-.489,4.866,4.866,0,0,1,1.512-.178,28.439,28.439,0,0,0,3.349.159,4.169,4.169,0,0,0,.82-.184c.248-.089.419-.267.343-.381a1.271,1.271,0,0,0-.635-.311l-.762-.248-2.618-.877c-.743-.254-1.347-.464-1.76-.635A2.415,2.415,0,0,1,253.525,164.66Z" transform="translate(-162.436 -109.589)" fill="#aa6550"/>
      <path id="Path_1792" data-name="Path 1792" d="M206.34,218.977l7.428-.737s9.823,6.729,8.9,8.209-2.542,0-2.542,0,1.747,2.154-1.08,2.827c0,0-.673,1.48-1.747,1.347h-.674s-.635,1.874-1.519,1.468a31.676,31.676,0,0,1-3.647-2.821l-7.625-.674Z" transform="translate(-145.457 -129.124)" fill="#b78876"/>
      <path id="Path_1793" data-name="Path 1793" d="M213.552,231.385s-1.906.731-2.294,1.5-.635,2.542.6,2.891a11.257,11.257,0,0,0,2.167-.07l-.47-2a14.158,14.158,0,0,1,1.131-1.169C215.09,232.2,214.645,230.883,213.552,231.385Z" transform="translate(-148.05 -133.876)" fill="#ffbe9d"/>
      <path id="Path_1794" data-name="Path 1794" d="M217,232.985s-1.906.731-2.294,1.493a1.677,1.677,0,0,0,1.093,2.376,8.806,8.806,0,0,0,1.963-.064l-.2-.388c-.381-.75-.546-1.36.127-1.862a4.431,4.431,0,0,0,.445-.407.832.832,0,0,0-1.131-1.15Z" transform="translate(-149.359 -134.459)" fill="#ffbe9d"/>
      <path id="Path_1795" data-name="Path 1795" d="M218.97,237.675a1.118,1.118,0,0,1-.152-1.309,1.811,1.811,0,0,1,1.118-.813.832.832,0,0,1,.87.14.75.75,0,0,1,.121.572,3.018,3.018,0,0,1-.775,1.391c-.178.222-.394.464-.68.457s-.5-.273-.635-.515" transform="translate(-150.868 -135.413)" fill="#ffbe9d"/>
      <path id="Path_1796" data-name="Path 1796" d="M155.333,144.309,157,143.68l1.442,2.586-.807,2.764-1.7.419-1.7-2.141Z" transform="translate(-127.376 -101.939)" fill="#003f5a"/>
      <path id="Path_1797" data-name="Path 1797" d="M156.91,152.519s2.167,11.888,3.965,20.25c0,0,1.48,6.989,2.078,8.565a22.755,22.755,0,0,0,2.726,4.448l2.09.813L166.5,174.847,158.619,152.1Z" transform="translate(-128.349 -105.009)" fill="#003f5a"/>
      <g id="Group_9482" data-name="Group 9482" transform="translate(26.864 41.741)" opacity="0.4">
        <path id="Path_1798" data-name="Path 1798" d="M155.333,144.309,157,143.68l1.442,2.586-.807,2.764-1.7.419-1.7-2.141Z" transform="translate(-154.24 -143.68)"/>
      </g>
      <g id="Group_9483" data-name="Group 9483" transform="translate(28.561 47.091)" opacity="0.4">
        <path id="Path_1799" data-name="Path 1799" d="M156.91,152.519s2.167,11.888,3.965,20.25c0,0,1.7,6.9,2.078,8.565.222.985,2.726,4.448,2.726,4.448l2.09.813L166.5,174.847,158.619,152.1Z" transform="translate(-156.91 -152.1)"/>
      </g>
      <path id="Path_1800" data-name="Path 1800" d="M139.454,133.3l10.027,7.224-2.167,5.96-9.124-9.391Z" transform="translate(-121.524 -98.155)" fill="#f5f5f5"/>
      <path id="Path_1801" data-name="Path 1801" d="M158.59,140.092l2.8-6.252L162.974,139l-2.2,5.414Z" transform="translate(-128.962 -98.352)" fill="#f5f5f5"/>
      <path id="Path_1802" data-name="Path 1802" d="M149.645,142.42a1.905,1.905,0,0,1-.114.457l-.407,1.271c-.356,1.061-.877,2.542-1.506,4.308l-.083.241-.178-.191-2.332-2.58c-1.817-2.014-3.45-3.85-4.613-5.191l-1.372-1.6a3.628,3.628,0,0,1-.47-.635,3.814,3.814,0,0,1,.566.534l1.449,1.525c1.214,1.271,2.872,3.113,4.683,5.128.82.915,1.6,1.792,2.326,2.592l-.261.051c.635-1.741,1.207-3.221,1.614-4.27l.489-1.214a1.666,1.666,0,0,1,.21-.426Z" transform="translate(-121.662 -100.051)" fill="#263238"/>
      <path id="Path_1803" data-name="Path 1803" d="M162.989,142a7.529,7.529,0,0,1-.47,1.461c-.324.883-.8,2.1-1.347,3.437l-.235.578-.165.4-.14-.407a27.64,27.64,0,0,0-2-4.1,4.143,4.143,0,0,1,.839,1.042,13.807,13.807,0,0,1,1.474,2.955h-.311c.076-.191.159-.381.235-.578.546-1.341,1.055-2.542,1.436-3.406A6.628,6.628,0,0,1,162.989,142Z" transform="translate(-128.976 -101.327)" fill="#263238"/>
      <path id="Path_1804" data-name="Path 1804" d="M359.762,438.07l3.863,15.338,6.557,11.253a1.62,1.62,0,0,1-.68,2.268h0a1.6,1.6,0,0,1-1.48,0c-2.948-1.588-13.75-7.491-13.979-8.629-.254-1.315-5.153-15.885-5.153-15.885Z" transform="translate(-198.347 -209.276)" fill="#003f5a"/>
      <g id="Group_9484" data-name="Group 9484" transform="translate(155.449 247.976)" opacity="0.6">
        <path id="Path_1805" data-name="Path 1805" d="M372.342,477.937,356.61,468.26l.178.635a2.44,2.44,0,0,0,.978,1.372c1.271.87,4.88,3.177,13.045,7.625a1.633,1.633,0,0,0,1.531,0Z" transform="translate(-356.61 -468.26)" fill="#fff"/>
      </g>
      <g id="Group_9485" data-name="Group 9485" transform="translate(155.998 242.153)" opacity="0.6">
        <path id="Path_1806" data-name="Path 1806" d="M358.691,459.136a.979.979,0,0,1,.6,1.163.94.94,0,0,1-1.15.6,1.029,1.029,0,0,1-.635-1.233.972.972,0,0,1,1.271-.5" transform="translate(-357.474 -459.095)" fill="#fff"/>
      </g>
      <path id="Path_1807" data-name="Path 1807" d="M372.97,473.115a4.9,4.9,0,0,1,1-1.557,5.082,5.082,0,0,1,1.665-.82c0-.038-.222-.1-.591-.057a2.605,2.605,0,0,0-2.071,1.836C372.881,472.886,372.919,473.115,372.97,473.115Z" transform="translate(-207.107 -221.161)" fill="#263238"/>
      <path id="Path_1808" data-name="Path 1808" d="M375.57,476.281c.1.051.445-.585,1.169-1.029a14.508,14.508,0,0,1,1.436-.6,1.8,1.8,0,0,0-1.62.311C375.736,475.48,375.481,476.262,375.57,476.281Z" transform="translate(-208.068 -222.586)" fill="#263238"/>
      <path id="Path_1809" data-name="Path 1809" d="M368.67,469.639a8.3,8.3,0,0,1,3.812-2.859,4.448,4.448,0,0,0-3.812,2.859Z" transform="translate(-205.559 -219.744)" fill="#263238"/>
      <path id="Path_1810" data-name="Path 1810" d="M366.2,463.285c.07.076.813-.508,1.906-.845s2.027-.324,2.033-.426A3.107,3.107,0,0,0,368,462.1,3.177,3.177,0,0,0,366.2,463.285Z" transform="translate(-204.658 -217.953)" fill="#263238"/>
      <path id="Path_1811" data-name="Path 1811" d="M364.237,456.272a7.623,7.623,0,0,1,1.951-.934,7.916,7.916,0,0,1,2.16-.057c0-.038-.2-.178-.635-.286a3.507,3.507,0,0,0-1.633,0,3.462,3.462,0,0,0-1.455.737C364.333,456.011,364.206,456.234,364.237,456.272Z" transform="translate(-203.941 -215.412)" fill="#263238"/>
      <path id="Path_1812" data-name="Path 1812" d="M365.3,452.539a1.352,1.352,0,0,0-.133-.585,4.188,4.188,0,0,0-.877-1.385,1.868,1.868,0,0,0-1-.635.635.635,0,0,0-.667.337,1.023,1.023,0,0,0-.051.75,2.287,2.287,0,0,0,2.5,1.512,2.669,2.669,0,0,0,2.148-2.04.934.934,0,0,0-.165-.75.635.635,0,0,0-.731-.146,2.261,2.261,0,0,0-.864.8,4.607,4.607,0,0,0-.712,1.474,1.431,1.431,0,0,0-.089.591,7.335,7.335,0,0,1,1-1.906,2.135,2.135,0,0,1,.769-.68.343.343,0,0,1,.4.083.635.635,0,0,1,.076.5,2.376,2.376,0,0,1-1.906,1.747,1.989,1.989,0,0,1-2.141-1.271.782.782,0,0,1,0-.527.35.35,0,0,1,.369-.191,1.683,1.683,0,0,1,.851.521,6.119,6.119,0,0,1,1.226,1.8Z" transform="translate(-203.318 -213.458)" fill="#263238"/>
      <path id="Path_1813" data-name="Path 1813" d="M284.326,442.333l.82,11.825s-11.742,4.8-11.806,6.989l22.982-.75-.515-18.477Z" transform="translate(-170.8 -210.68)" fill="#003f5a"/>
      <path id="Path_1814" data-name="Path 1814" d="M302.43,459.24a.94.94,0,0,1,.686,1.055.909.909,0,0,1-1.036.7.991.991,0,0,1-.718-1.118.94.94,0,0,1,1.156-.6" transform="translate(-181.013 -216.995)" fill="#e0e0e0"/>
      <path id="Path_1815" data-name="Path 1815" d="M296.315,469.932l-.121-1.862L274.2,469.5s-1.01.483-.87,1.2Z" transform="translate(-170.793 -220.215)" fill="#e0e0e0"/>
      <path id="Path_1816" data-name="Path 1816" d="M291.33,460.935c0,.108.572.146,1.131.483s.877.807.978.762-.089-.693-.775-1.1S291.3,460.846,291.33,460.935Z" transform="translate(-177.359 -217.572)" fill="#263238"/>
      <path id="Path_1817" data-name="Path 1817" d="M287.59,462.682c0,.114.47.286.864.75s.527.959.635.953.165-.635-.343-1.214S287.59,462.58,287.59,462.682Z" transform="translate(-175.996 -218.232)" fill="#263238"/>
      <path id="Path_1818" data-name="Path 1818" d="M285.031,466.235c.108,0,.241-.546-.064-1.15s-.845-.832-.89-.737.292.413.54.909S284.923,466.222,285.031,466.235Z" transform="translate(-174.714 -218.85)" fill="#263238"/>
      <path id="Path_1819" data-name="Path 1819" d="M291.507,456.494c.051.1.559-.076,1.195-.051s1.137.2,1.188.108-.432-.483-1.182-.5S291.443,456.405,291.507,456.494Z" transform="translate(-177.422 -215.832)" fill="#263238"/>
      <path id="Path_1820" data-name="Path 1820" d="M291.32,451.881a2.256,2.256,0,0,0,1.15-.044,5.216,5.216,0,0,0,1.188-.413,4.862,4.862,0,0,0,.635-.375,1.271,1.271,0,0,0,.343-.28.489.489,0,0,0,.032-.6.635.635,0,0,0-.5-.241,1.424,1.424,0,0,0-.432.076,3.865,3.865,0,0,0-.705.267,4.01,4.01,0,0,0-1.036.731c-.521.515-.686.94-.635.959s.3-.324.826-.75a4.672,4.672,0,0,1,1.01-.635,3.959,3.959,0,0,1,.635-.222c.241-.07.445-.083.515,0s0,.057,0,.127a1.118,1.118,0,0,1-.254.21,6.075,6.075,0,0,1-.6.369,7.073,7.073,0,0,1-1.093.464A6.91,6.91,0,0,0,291.32,451.881Z" transform="translate(-177.356 -213.601)" fill="#263238"/>
      <path id="Path_1821" data-name="Path 1821" d="M290.629,451.144a1.812,1.812,0,0,0,.267-1.118,3.811,3.811,0,0,0-.2-1.271,3.5,3.5,0,0,0-.318-.686.96.96,0,0,0-.75-.559.54.54,0,0,0-.47.337,1.5,1.5,0,0,0-.108.426,2.607,2.607,0,0,0,0,.775,2.656,2.656,0,0,0,.534,1.175c.47.578.94.7.947.635a6.145,6.145,0,0,1-.724-.826,2.618,2.618,0,0,1-.4-1.067,2.345,2.345,0,0,1,0-.667c0-.241.114-.445.2-.419a.878.878,0,0,1,.419.362,4.552,4.552,0,0,1,.3.635,4.055,4.055,0,0,1,.261,1.144C290.674,450.706,290.572,451.132,290.629,451.144Z" transform="translate(-176.519 -212.718)" fill="#263238"/>
      <path id="Path_1822" data-name="Path 1822" d="M280.76,240.14l3.7,137.6,18.134-.546-1.4-118.094,23.1,121.379,16.374-4.276-21.139-135.8Z" transform="translate(-173.506 -137.109)" fill="#263238"/>
      <path id="Path_1823" data-name="Path 1823" d="M296.305,383.889c-.1,0-.165-28.523-.165-63.7s.07-63.7.165-63.7.165,28.516.165,63.7S296.394,383.889,296.305,383.889Z" transform="translate(-179.114 -143.067)" fill="#455a64"/>
      <path id="Path_1824" data-name="Path 1824" d="M346.754,390.818c-.089,0-4.321-27.322-9.455-61.067s-9.239-61.118-9.131-61.131,4.321,27.322,9.455,61.08S346.849,390.806,346.754,390.818Z" transform="translate(-190.791 -147.493)" fill="#455a64"/>
      <path id="Path_1825" data-name="Path 1825" d="M307.31,94.973a27.726,27.726,0,0,0,1.531-4.378c.216-1.144.559-2.853.1-3.92a2.745,2.745,0,0,0-2.967-1.8,6.653,6.653,0,0,0-3.844-5.2,16.838,16.838,0,0,0-6.354-1.652,5.369,5.369,0,0,0-2.383.3,3.056,3.056,0,0,0-1.436,1.544,5.267,5.267,0,0,0-4.67-.743c-1.754.47-3.749,1.417-4.518,3.056a5.14,5.14,0,0,0-.133,3.882c.337,1.067,1.468,2.745,2.542,2.351" transform="translate(-174.075 -77.987)" fill="#263238"/>
      <path id="Path_1826" data-name="Path 1826" d="M299.868,128.19h0a7.847,7.847,0,0,1-7.676-8.26c.108-2.192.21-3.965.21-3.965s-5.985-.775-6.208-6.735.47-19.659.47-19.659h0A20.714,20.714,0,0,1,307.538,91.7l.9.635-.553,28.154a7.853,7.853,0,0,1-8.012,7.7Z" transform="translate(-175.471 -81.525)" fill="#ffbe9d"/>
      <path id="Path_1827" data-name="Path 1827" d="M295.953,130.712a13.89,13.89,0,0,0,7.714-2.4s-1.836,4.619-7.8,4.232Z" transform="translate(-179.015 -96.335)" fill="#eb996e"/>
      <path id="Path_1828" data-name="Path 1828" d="M320.262,104.623c.1-.044,4.066-1.315,4.035,2.764s-4.111,3.209-4.117,3.088S320.262,104.623,320.262,104.623Z" transform="translate(-187.878 -87.618)" fill="#ffbe9d"/>
      <path id="Path_1829" data-name="Path 1829" d="M322.148,109.686a1.949,1.949,0,0,0,.191.108.686.686,0,0,0,.534,0,1.747,1.747,0,0,0,.826-1.569,2.287,2.287,0,0,0-.2-1.017.807.807,0,0,0-.527-.546.356.356,0,0,0-.419.191c-.057.114-.032.191-.051.2s-.089-.064-.057-.235a.464.464,0,0,1,.165-.254.565.565,0,0,1,.394-.1,1.017,1.017,0,0,1,.737.635,2.338,2.338,0,0,1,.235,1.137,1.849,1.849,0,0,1-1.048,1.754.782.782,0,0,1-.635-.114C322.154,109.787,322.135,109.7,322.148,109.686Z" transform="translate(-188.595 -88.366)" fill="#eb996e"/>
      <path id="Path_1830" data-name="Path 1830" d="M289.39,104.867a.858.858,0,0,0,.845.839.813.813,0,0,0,.858-.788.851.851,0,0,0-.845-.839.82.82,0,0,0-.858.788Z" transform="translate(-176.652 -87.5)" fill="#263238"/>
      <path id="Path_1831" data-name="Path 1831" d="M289.055,103.283c.108.108.743-.381,1.658-.4s1.6.419,1.7.305-.064-.248-.362-.457a2.351,2.351,0,0,0-1.36-.381,2.237,2.237,0,0,0-1.315.464C289.093,103.036,289.017,103.239,289.055,103.283Z" transform="translate(-176.527 -86.869)" fill="#263238"/>
      <path id="Path_1832" data-name="Path 1832" d="M303.51,104.854a.858.858,0,0,0,.845.832.807.807,0,0,0,.858-.788.851.851,0,0,0-.839-.839.826.826,0,0,0-.864.794Z" transform="translate(-181.801 -87.493)" fill="#263238"/>
      <path id="Path_1833" data-name="Path 1833" d="M303.222,103.2c.114.108.743-.388,1.658-.407s1.6.419,1.7.3-.064-.248-.362-.451a2.319,2.319,0,0,0-1.36-.388,2.237,2.237,0,0,0-1.315.464C303.26,102.946,303.171,103.149,303.222,103.2Z" transform="translate(-181.691 -86.837)" fill="#263238"/>
      <path id="Path_1834" data-name="Path 1834" d="M296.91,110.167a6.169,6.169,0,0,0-1.493-.229c-.235,0-.457-.057-.5-.216a1.271,1.271,0,0,1,.14-.7c.21-.572.426-1.169.635-1.8a30.184,30.184,0,0,0,1.436-4.7,30.864,30.864,0,0,0-1.811,4.568l-.635,1.811a1.354,1.354,0,0,0-.1.921.635.635,0,0,0,.394.33,1.6,1.6,0,0,0,.4.044A5.648,5.648,0,0,0,296.91,110.167Z" transform="translate(-178.53 -86.935)" fill="#263238"/>
      <path id="Path_1835" data-name="Path 1835" d="M300.9,115.45c-.152,0-.127.985-.959,1.716s-1.906.635-1.906.782.241.184.693.184a2.453,2.453,0,0,0,1.582-.6,2.154,2.154,0,0,0,.743-1.436C301.08,115.685,300.965,115.437,300.9,115.45Z" transform="translate(-179.803 -91.646)" fill="#263238"/>
      <path id="Path_1836" data-name="Path 1836" d="M302.717,97.679c.1.248,1.01.108,2.084.21s1.957.369,2.09.146c.064-.108-.1-.343-.451-.572a3.457,3.457,0,0,0-1.557-.5,3.52,3.52,0,0,0-1.627.229C302.9,97.361,302.679,97.558,302.717,97.679Z" transform="translate(-181.51 -84.899)" fill="#263238"/>
      <path id="Path_1837" data-name="Path 1837" d="M289.474,99.073c.165.2.788,0,1.55-.057s1.4.1,1.544-.114c.064-.108-.044-.318-.33-.508a2.243,2.243,0,0,0-2.491.146C289.481,98.755,289.4,98.971,289.474,99.073Z" transform="translate(-176.673 -85.314)" fill="#263238"/>
      <path id="Path_1838" data-name="Path 1838" d="M307.906,91.962c-.038,1.741.4,3.666.133,5.375-.038.261-.686.966-.743,1.22-.311,1.519-.921,2.179-1.855.635a12.953,12.953,0,0,1-.775-2.923l-1.22-5.471a9.575,9.575,0,0,1-4.5,1.188,4.632,4.632,0,0,1-3.927-2.192,4.81,4.81,0,0,1-7.434,1.169,2,2,0,0,1-2.637.635,2.383,2.383,0,0,1-1.036-2.605c.375-1.461,1.906-2.287,3.349-2.751,5.623-1.811,11.926-.635,17.092,2.2a8.64,8.64,0,0,1,2.1,1.5c.6.635,1.423,1.347,1.468,2.211" transform="translate(-174.626 -80.682)" fill="#263238"/>
      <path id="Path_1839" data-name="Path 1839" d="M315,94.908a2.911,2.911,0,0,1,.921.146,3.125,3.125,0,0,1,.851.546c.292.254.578.585.928.909a3.05,3.05,0,0,0,1.156.731,2.072,2.072,0,0,0,1.131,0c.635-.178.877-.521.851-.546a6.391,6.391,0,0,1-.9.3,1.964,1.964,0,0,1-.979-.083,2.879,2.879,0,0,1-1.023-.674c-.33-.311-.635-.635-.953-.9a2.942,2.942,0,0,0-.978-.534A1.1,1.1,0,0,0,315,94.908Z" transform="translate(-185.988 -84.098)" fill="#455a64"/>
      <path id="Path_1840" data-name="Path 1840" d="M316.068,97.756c0,.051.305,0,.635.286a3.633,3.633,0,0,1,.521.591,2.656,2.656,0,0,0,.775.718,2.789,2.789,0,0,0,1.855.394c.489-.076.743-.254.724-.292s-.3.038-.75.044a2.98,2.98,0,0,1-1.646-.445c-.585-.324-.877-.947-1.341-1.214S316.023,97.712,316.068,97.756Z" transform="translate(-186.378 -85.167)" fill="#455a64"/>
      <path id="Path_1841" data-name="Path 1841" d="M289.995,79.553a1.058,1.058,0,0,0-.527.051,2.249,2.249,0,0,0-1.144.864,5.453,5.453,0,0,0-.337,4.594,6.487,6.487,0,0,0,2.923,3.59,5.661,5.661,0,0,0,1.3.553,1.36,1.36,0,0,0,.515.089,18.033,18.033,0,0,1-1.677-.858,6.583,6.583,0,0,1-2.713-3.488,5.472,5.472,0,0,1,.2-4.346,2.326,2.326,0,0,1,.991-.87C289.811,79.6,289.995,79.584,289.995,79.553Z" transform="translate(-176.018 -78.553)" fill="#455a64"/>
      <path id="Path_1842" data-name="Path 1842" d="M283.547,83.45a2.636,2.636,0,0,0,.051,1.15,7.123,7.123,0,0,0,3.018,4.537,2.656,2.656,0,0,0,1.042.5,11.711,11.711,0,0,1-2.713-2.656A11.723,11.723,0,0,1,283.547,83.45Z" transform="translate(-174.507 -79.979)" fill="#455a64"/>
      <path id="Path_1843" data-name="Path 1843" d="M225.731,214.14l-8.718.438a2.071,2.071,0,0,0-1.963,2.1c.044,2,.381,4.721,1.906,4.448l.991-4.34,7.237,6.354a5.254,5.254,0,0,0,2.605,1.271l1.7-.178Z" transform="translate(-149.547 -127.63)" fill="#ffbe9d"/>
      <path id="Path_1844" data-name="Path 1844" d="M293.558,139.735,289,141.241l-2.262,37.838v33.568l27.976,3.094.324-48.4-1.8-24.088-4.276-5.109Z" transform="translate(-175.686 -99.919)" fill="#e0e0e0"/>
      <path id="Path_1845" data-name="Path 1845" d="M295.26,140.069V136.4l16.628-2.313-.667,8.444-3.819,6.621-6.246.349-4.511-2.783Z" transform="translate(-178.793 -98.443)" fill="#e0e0e0"/>
      <path id="Path_1846" data-name="Path 1846" d="M297.531,140.912a4.3,4.3,0,0,1-.1-1.677,4.448,4.448,0,0,1,.235-1.665,4.3,4.3,0,0,1,.1,1.677,4.448,4.448,0,0,1-.235,1.665Z" transform="translate(-179.571 -99.712)" fill="#263238"/>
      <path id="Path_1847" data-name="Path 1847" d="M304.086,140.21a5.561,5.561,0,0,1-.057-1.874,5.357,5.357,0,0,1,.28-1.855,5.472,5.472,0,0,1,.051,1.906A5.235,5.235,0,0,1,304.086,140.21Z" transform="translate(-181.97 -99.314)" fill="#263238"/>
      <path id="Path_1848" data-name="Path 1848" d="M310.433,139.429a6.048,6.048,0,0,1,0-1.982,5.972,5.972,0,0,1,.311-1.957,6.266,6.266,0,0,1,0,1.982A6.177,6.177,0,0,1,310.433,139.429Z" transform="translate(-184.295 -98.953)" fill="#263238"/>
      <path id="Path_1849" data-name="Path 1849" d="M316.472,138.55a7.625,7.625,0,0,1,.172-3.73,6.944,6.944,0,0,1,0,1.868A7.1,7.1,0,0,1,316.472,138.55Z" transform="translate(-186.47 -98.709)" fill="#263238"/>
      <path id="Path_1850" data-name="Path 1850" d="M308.761,165.86a2.4,2.4,0,0,1-.222.635c-.159.394-.407.953-.731,1.639-.635,1.366-1.608,3.228-2.789,5.21s-2.357,3.723-3.253,4.943c-.445.635-.813,1.1-1.08,1.43a2.637,2.637,0,0,1-.445.489,22.478,22.478,0,0,1,1.334-2.052c.845-1.271,1.982-3,3.177-4.975s2.167-3.812,2.866-5.153A23.526,23.526,0,0,1,308.761,165.86Z" transform="translate(-180.608 -110.026)" fill="#263238"/>
      <path id="Path_1851" data-name="Path 1851" d="M319.972,137.21l4.511,2.173,8.718,2.141a7.263,7.263,0,0,1,5.96,8.076l-4.568,35.582,5.452,34.5-21.6-.635-1.271-12.835V170.632Z" transform="translate(-186.781 -99.58)" fill="#455a64"/>
      <path id="Path_1852" data-name="Path 1852" d="M317.17,179.142a3.056,3.056,0,0,1,.064-.445c.064-.318.146-.731.248-1.271l.959-4.588,3.3-15.1c.362-1.62.712-3.177,1.048-4.715l.044.152-1.5-1.569-.083-.089.064-.1,2.51-4.175v.121l-2.77-6.71c-.311-.782-.566-1.411-.75-1.906a4.391,4.391,0,0,1-.241-.674,3.458,3.458,0,0,1,.318.635l.826,1.849,2.846,6.716.032.064-.038.064c-.769,1.271-1.6,2.7-2.484,4.2v-.191l1.5,1.557.064.064v.083c-.337,1.519-.686,3.094-1.042,4.715-1.322,5.877-2.542,11.2-3.393,15.084-.438,1.906-.8,3.45-1.061,4.568l-.305,1.233a2.206,2.206,0,0,1-.152.432Z" transform="translate(-186.781 -99.894)" fill="#263238"/>
      <path id="Path_1853" data-name="Path 1853" d="M232.44,186.419l19.113-10.656,9.258-24.977a13.426,13.426,0,0,1,7.415-7.714l2.459-1.023v65.757l.489,15.58-10.357-3.1,5.286-31.312-1.83-15.408-1.811,7.453a10.1,10.1,0,0,1-4.721,6.354l-19.862,10.319Z" transform="translate(-155.888 -101.345)" fill="#455a64"/>
      <path id="Path_1854" data-name="Path 1854" d="M231.878,212.64l-1.608.483,4.524,10.789,2.109-.82Z" transform="translate(-155.097 -127.083)" fill="#e0e0e0"/>
      <path id="Path_1855" data-name="Path 1855" d="M265.966,199.64a13.915,13.915,0,0,0-1.43-2.421,14.183,14.183,0,0,0-2.116-1.849A5.35,5.35,0,0,1,265.966,199.64Z" transform="translate(-166.819 -120.786)" fill="#263238"/>
      <path id="Path_1856" data-name="Path 1856" d="M235.839,212.039a.975.975,0,0,0-.108.311c-.013.184.108.4.362.324a.273.273,0,0,0,.127-.464c-.108-.153-.248-.159-.254-.21s.178-.14.419.038a.572.572,0,0,1,.216.464.559.559,0,0,1-.413.489.54.54,0,0,1-.686-.693C235.61,212.014,235.807,211.976,235.839,212.039Z" transform="translate(-156.993 -126.825)" fill="#263238"/>
      <path id="Path_1857" data-name="Path 1857" d="M238.262,211.019a.874.874,0,0,0-.1.311c-.006.184.108.4.362.324a.28.28,0,0,0,.127-.47c-.108-.146-.248-.159-.261-.2s.178-.146.426.038a.559.559,0,0,1,.216.458.585.585,0,0,1-1.036.3.578.578,0,0,1-.064-.508C238.04,210.968,238.262,210.968,238.262,211.019Z" transform="translate(-157.879 -126.453)" fill="#263238"/>
      <path id="Path_1858" data-name="Path 1858" d="M290.942,181.589a1.736,1.736,0,0,1-.083-.4c-.044-.3-.108-.693-.178-1.175-.146-1.061-.343-2.542-.585-4.314-.47-3.685-1.106-8.711-1.811-14.258-.1-.788-.191-1.563-.286-2.332v-.076c.483-1.226.953-2.414,1.4-3.552v.121c-.483-1.1-.947-2.154-1.379-3.177v-.1c.851-3.056,1.563-5.63,2.071-7.485.254-.877.457-1.576.6-2.1a4.853,4.853,0,0,1,.248-.737,5.036,5.036,0,0,1-.159.756c-.127.527-.3,1.239-.527,2.122-.483,1.862-1.156,4.448-1.951,7.517v-.1l1.4,3.139v.121l-1.392,3.59v-.083c.1.762.191,1.544.292,2.332.635,5.553,1.271,10.579,1.709,14.265.2,1.8.368,3.266.483,4.333l.114,1.175a1.688,1.688,0,0,1,.025.407Z" transform="translate(-176.146 -101.33)" fill="#263238"/>
      <path id="Path_1859" data-name="Path 1859" d="M283.02,198.5a1.646,1.646,0,0,1-.064-.311c-.032-.241-.076-.54-.127-.9-.1-.832-.235-1.951-.407-3.31-.337-2.8-.813-6.653-1.385-10.91s-1.131-8.108-1.538-10.891c-.2-1.353-.362-2.472-.483-3.3-.044-.362-.083-.635-.114-.9a1.01,1.01,0,0,1,0-.318,1.547,1.547,0,0,1,.083.3c.051.241.108.534.178.89.146.775.349,1.906.585,3.285.47,2.777,1.067,6.621,1.639,10.884s1.01,8.127,1.271,10.929c.14,1.4.241,2.542.3,3.317,0,.362.044.635.057.909A1.009,1.009,0,0,1,283.02,198.5Z" transform="translate(-172.824 -110.683)" fill="#263238"/>
      <path id="Path_1860" data-name="Path 1860" d="M281.237,246.1a2.652,2.652,0,0,0,.438.534,2.033,2.033,0,0,0,1.747.394,2.948,2.948,0,0,0,1.906-1.862,11.515,11.515,0,0,0,.534-3.418,7.816,7.816,0,0,0-.349-3.412,6.239,6.239,0,0,0-1.735-2.186,8.1,8.1,0,0,1-1.322-1.442,1.652,1.652,0,0,1-.311-.635,6.979,6.979,0,0,0,.413.572,10.005,10.005,0,0,0,1.379,1.347,6.145,6.145,0,0,1,1.855,2.243,7.758,7.758,0,0,1,.4,3.546,11.278,11.278,0,0,1-.578,3.514,3.177,3.177,0,0,1-2.122,1.97,2.078,2.078,0,0,1-1.906-.521,1.543,1.543,0,0,1-.311-.445C281.237,246.149,281.225,246.1,281.237,246.1Z" transform="translate(-173.678 -134.896)" fill="#263238"/>
      <path id="Path_1861" data-name="Path 1861" d="M270.06,209.571s.635-7.288,6.4-7.961A8.526,8.526,0,0,1,270.06,209.571Z" transform="translate(-169.605 -123.061)" fill="#263238"/>
      <path id="Path_1862" data-name="Path 1862" d="M318.74,241.43l16.806,10.992,1.906-1.519.9-24.634-16.005-12.13-2.2.756Z" transform="translate(-187.354 -127.63)" fill="#003f5a"/>
      <path id="Path_1863" data-name="Path 1863" d="M322.468,214.69l.654,26.661H319.59l1.182-26.134Z" transform="translate(-187.664 -127.83)" fill="#e0e0e0"/>
      <path id="Path_1864" data-name="Path 1864" d="M329.91,259.333a2.065,2.065,0,0,0,1.906,1.271.216.216,0,0,1,.14.121,1.906,1.906,0,0,0,1.595.991,3.405,3.405,0,0,0,1.8-.521c.877-.534,2.44-4.041,2.44-4.041l3.7-8.26-6.227-1.684-7.917,2.465c0,.146-1.855,7.625-1.855,7.625a1.906,1.906,0,0,0,2.224-1.182,20.5,20.5,0,0,1,1.4-2.618l.591,3.374-2.256.769a1.5,1.5,0,0,0,.966,1.716Z" transform="translate(-189.818 -139.687)" fill="#ffbe9d"/>
      <path id="Path_1865" data-name="Path 1865" d="M336.84,165.686l10.376,19.1-8.444,25.066,9.385,5.293L360.1,187.251a7.936,7.936,0,0,0-.1-6.456L345.38,149.35Z" transform="translate(-193.953 -104.007)" fill="#455a64"/>
      <path id="Path_1866" data-name="Path 1866" d="M339.377,244.57l-.877,1.944,8.857,4.778.928-1.7Z" transform="translate(-194.558 -138.725)" fill="#e0e0e0"/>
      <path id="Path_1867" data-name="Path 1867" d="M337.05,209.447v-.127a2.088,2.088,0,0,1,.108-.369l.451-1.417c.413-1.271,1-3.044,1.722-5.267,1.5-4.5,3.59-10.764,5.979-17.937v.133c-1.207-2.052-2.453-4.219-3.7-6.456-2.287-4.086-4.384-8.025-6.182-11.666-.89-1.824-1.716-3.565-2.414-5.236a10.44,10.44,0,0,1-.864-4.95,11.361,11.361,0,0,1,.921-4.047,7.93,7.93,0,0,1,1.836-2.542,6.03,6.03,0,0,1,1.652-1.093,3.72,3.72,0,0,1,.635-.235,7.289,7.289,0,0,0-2.211,1.423,7.752,7.752,0,0,0-1.754,2.542,11.335,11.335,0,0,0-.864,3.984,10.344,10.344,0,0,0,.883,4.829c.712,1.658,1.544,3.393,2.44,5.21,1.8,3.628,3.914,7.555,6.2,11.634,1.271,2.237,2.484,4.4,3.685,6.456l.038.064v.07c-2.44,7.161-4.562,13.413-6.093,17.9l-1.754,5.223c-.216.591-.381,1.055-.5,1.4l-.14.362A.83.83,0,0,1,337.05,209.447Z" transform="translate(-192.232 -103.602)" fill="#263238"/>
      <path id="Path_1868" data-name="Path 1868" d="M360.159,204.236a7.807,7.807,0,0,1-1.023-.362,7.313,7.313,0,0,0-5.039.159,7.509,7.509,0,0,1-1,.426,2.414,2.414,0,0,1,.9-.635,6.265,6.265,0,0,1,2.592-.635,6.2,6.2,0,0,1,2.624.483,2.427,2.427,0,0,1,.94.566Z" transform="translate(-199.882 -123.635)" fill="#263238"/>
      <path id="Path_1869" data-name="Path 1869" d="M333.57,167.91l7.453,24.945,1.055-8.2Z" transform="translate(-192.761 -110.774)" fill="#263238"/>
      <path id="Path_1870" data-name="Path 1870" d="M352.781,244.99a.873.873,0,0,0-.1.311c-.006.184.108.4.362.324a.28.28,0,0,0,.127-.47c-.108-.146-.248-.159-.254-.2s.172-.14.419.038a.559.559,0,0,1,.216.464.565.565,0,0,1-.419.489.553.553,0,0,1-.635-.191.566.566,0,0,1-.064-.5C352.527,244.959,352.781,244.959,352.781,244.99Z" transform="translate(-199.626 -138.84)" fill="#263238"/>
      <path id="Path_1871" data-name="Path 1871" d="M353.922,242.159a.874.874,0,0,0-.1.318.286.286,0,1,0,.489-.146c-.108-.152-.254-.159-.261-.21s.178-.14.426.038a.572.572,0,0,1,.216.464.566.566,0,1,1-1.1-.2C353.7,242.134,353.922,242.115,353.922,242.159Z" transform="translate(-200.05 -137.807)" fill="#263238"/>
      <path id="Path_1872" data-name="Path 1872" d="M369.347,192.21c-1.112.585-1.5,2.224-1.372,3.476a30.007,30.007,0,0,1,.559,3.717,15.771,15.771,0,0,1-.477,2.65,4.53,4.53,0,0,0,.076,2.65,2.033,2.033,0,0,0,2.1,1.328l.883-1.779a9.8,9.8,0,0,0-.127-8.934Z" transform="translate(-205.276 -119.634)" fill="#263238"/>
    </g>
  </g>
</svg>
