<svg xmlns="http://www.w3.org/2000/svg" width="549.1" height="151.574" viewBox="0 0 549.1 151.574">
  <g id="Logo___Logo_pin" data-name="Logo _ Logo pin" transform="translate(-70.422 -105.861)">
    <path id="Path_7" data-name="Path 7" d="M222.149,427.727q4.236,6.865,8.607,13.659a6.969,6.969,0,0,1,.262,7.368,12.743,12.743,0,0,0,2.634,16.158,15.3,15.3,0,0,0,18.628,1.039,13.843,13.843,0,0,0,3.735-3.891,8.265,8.265,0,0,1,7.011-3.85l18.9.075a8.073,8.073,0,0,1,6.887,3.647,13.855,13.855,0,0,0,5.51,5.042,15.2,15.2,0,0,0,18.249-3.419,12.651,12.651,0,0,0,1.224-14.946,7.158,7.158,0,0,1-.055-7.521l16.172-26.578a8.2,8.2,0,0,1,7.244-3.816,15.487,15.487,0,0,0,12.273-5.344,13.439,13.439,0,0,0-2.992-20.063,16.014,16.014,0,0,0-20.187,2.095,13.86,13.86,0,0,0-1.713,2.224,8.214,8.214,0,0,1-7.211,3.884l-28.171-.812a8.235,8.235,0,0,1-6.049-2.808,12.042,12.042,0,0,0-9.223-4.152c-6.213.01-11.475,4.726-11.715,10.508-.259,6.241,5.094,11.374,11.733,11.374a12.04,12.04,0,0,0,9.135-4.078,8.18,8.18,0,0,1,5.94-2.879l28.167-.811a8.47,8.47,0,0,1,7.419,3.908l.164.255a7.119,7.119,0,0,1,.08,7.782l-16.62,26.317a8.023,8.023,0,0,1-6.785,3.718,14.69,14.69,0,0,0-12.141,6.027c-.157.221-.306.448-.448.676a8.166,8.166,0,0,1-6.963,3.65l-18.74.074a8.341,8.341,0,0,1-7.087-3.843,13.536,13.536,0,0,0-1.866-2.326,14.823,14.823,0,0,0-10.137-4.254,8.175,8.175,0,0,1-6.839-3.891q-4.121-6.922-8.388-13.768c-1.716-2.743-3.433-5.49-5.178-8.217a7.237,7.237,0,0,1,.864-8.841,16.436,16.436,0,0,0,1.756-2.353,15.257,15.257,0,0,0,1.009-14.2,7.146,7.146,0,0,1,2.3-8.475l26.947-21.343a14.192,14.192,0,0,1,12.444-2.394,24.285,24.285,0,0,0,8.574.693c10.549-1.008,19.065-8.974,20.1-18.807,1.4-13.3-10.5-24.375-24.775-23.057-10.666.985-19.243,9.076-20.187,19.024a19.794,19.794,0,0,0,.412,6.339,11.969,11.969,0,0,1-3.728,11.351l-26.608,25.047a8.429,8.429,0,0,1-7.619,1.908c-7.987-1.779-16.645,1.864-20.151,9.48a15.652,15.652,0,0,0,5.506,19.316,18.11,18.11,0,0,0,8.683,3.222,8.439,8.439,0,0,1,6.457,3.932Z" transform="translate(-123.143 -211.195)" fill="#003f5a"/>
    <path id="Path_8" data-name="Path 8" d="M736.406,595.852c-7.918,0-8.713-1.626-9.915-4.088-1.436-3.056-4.908-11.737-6.628-16.572-1.246-3.341-2.828-3.874-7.262-3.874H690.048c-3.557,0-5.539,1.113-6.428,3.612l-5.564,15.391c-1.308,3.562-2.03,5.531-9.583,5.531-7.423,0-7.423-2.475-7.423-3.806,0-1.63.317-2.472,2.223-7.256.306-.764.648-1.626,1.035-2.6,5.8-14.579,19.633-49.368,22.7-57.435,4.912-12.8,6.584-15.075,16.554-15.075,8.866,0,10.88,2.917,15.013,14.4,6.49,17.744,12.782,32.934,17.841,45.143,1.432,3.453,2.74,6.614,3.9,9.453,3.017,7.5,4.366,11.194,4.366,13.238-.008,1.375-.008,3.938-8.268,3.938m-34.387-63.686c-1.13,0-2.657.567-3.516,3.26-.321.859-.63,1.674-.955,2.513-.754,1.962-1.531,3.993-2.795,7.639-1.17,3.372-2.015,5.745-2.627,7.457-1.4,3.931-1.618,4.536-1.618,5.738,0,1.314.9,2.72,3.436,2.72h16.707c2.066,0,3.3-1.114,3.3-2.981,0-1.8-1.158-4.7-4.26-12.447l-4.179-10.706c-.357-1.015-1.129-3.192-3.491-3.192" transform="translate(-420.282 -338.417)" fill="#003f5a"/>
    <path id="Path_9" data-name="Path 9" d="M1010.715,595.852c-7.914,0-8.712-1.626-9.915-4.088-1.436-3.052-4.908-11.737-6.629-16.572-1.247-3.341-2.827-3.874-7.262-3.874H964.358c-3.556,0-5.538,1.113-6.427,3.613l-5.564,15.391c-1.308,3.562-2.029,5.531-9.583,5.531-7.423,0-7.423-2.475-7.423-3.807,0-1.629.317-2.471,2.223-7.259.3-.764.645-1.623,1.031-2.6,5.8-14.579,19.634-49.367,22.7-57.434,4.911-12.8,6.584-15.075,16.554-15.075,8.866,0,10.88,2.916,15.013,14.4,6.49,17.737,12.779,32.931,17.837,45.137,1.432,3.456,2.744,6.621,3.9,9.463,3.017,7.5,4.365,11.194,4.365,13.238,0,1.372,0,3.935-8.264,3.935m-34.383-63.686c-1.13,0-2.657.567-3.516,3.259-.321.859-.631,1.674-.955,2.513-.751,1.963-1.531,3.993-2.8,7.64-1.17,3.375-2.018,5.748-2.627,7.46-1.4,3.928-1.618,4.532-1.618,5.731,0,1.314.9,2.72,3.436,2.72h16.707c2.066,0,3.3-1.114,3.3-2.981,0-1.8-1.162-4.7-4.263-12.458l-4.176-10.695c-.361-1.012-1.133-3.189-3.49-3.189" transform="translate(-594.637 -338.417)" fill="#003f5a"/>
    <path id="Path_10" data-name="Path 10" d="M1298.078,595.861c-13.062,0-18.529-4.488-22.5-18.477-3.443-12.488-8.938-14.6-19.957-14.6-4.242,0-8.17.649-8.17,5.341,0,.526.018,3.365.044,6.926.04,5.894.095,13.965.095,16.443,0,2.509-1.564,3.834-10.116,4.109-.389.01-.776.017-1.147.017-8.315,0-8.315-2.529-8.315-4.76,0-.76.018-2.3.048-4.573.08-6.628.233-18.966.233-36.544,0-15.526-.07-22.592-.109-26.812-.019-1.776-.03-3.042-.03-4.214,0-6.807,1.5-8.96,33.039-8.96,30.383,0,45.151,9.072,45.151,27.733,0,16.07-11.092,19.37-17.724,21.34-3.046.906-5.247,1.562-5.247,3.432,0,1.525,1.457,2.38,3.3,3.467,2.988,1.755,7.5,4.407,10,11.361a18.469,18.469,0,0,0,8.4,10.512c2.092,1.365,2.941,1.986,2.941,3.776,0,2.163-2.609,4.481-9.93,4.481m-36.614-72.276c-9.768,0-13.46.659-13.46,7.64,0,.927-.036,5.225-.073,9.357-.033,3.833-.065,7.527-.065,8.268,0,4.682,3.535,6.108,15.13,6.108,15.454,0,24.319-5.809,24.319-15.941,0-7.038-4.486-15.432-25.85-15.432" transform="translate(-780.648 -338.47)" fill="#003f5a"/>
    <path id="Path_11" data-name="Path 11" d="M1520.446,595.833c-7.765,0-8.4-2.187-8.4-4.828,0-1-.03-4.417-.06-8.162-.035-4.475-.079-9.551-.079-11.324,0-5.191-1.436-7.6-7.477-17.736-1.218-2.041-2.625-4.4-4.25-7.171-7.367-12.4-14.791-24.864-17.57-29.145-.277-.448-.554-.869-.809-1.263-1.054-1.616-1.636-2.505-1.636-4.043,0-.679,0-2.489,8.257-2.489,7.755,0,9.3,1.518,11.176,5.249l11.558,22.735c1.424,2.74,2.547,4.941,3.451,6.713,3.659,7.161,4.041,7.911,5.976,7.911,2.121,0,2.562-.873,6-7.653.978-1.922,2.217-4.366,3.833-7.476l11-21.438c2.3-4.651,3.984-5.9,11.458-5.9,7.561,0,7.561,1.68,7.561,2.489,0,1.592-.142,2.291-3.309,7.69-8.134,13.883-16.5,27.832-20.99,35.321-1.875,3.13-3.172,5.293-3.654,6.115-.23.411-.438.777-.634,1.128-1.648,2.906-2.736,4.828-2.736,8.841,0,1.918.025,4.448.054,7.314.04,3.768.083,8.04.083,12.3,0,2.917-.615,4.828-8.813,4.828" transform="translate(-940.923 -338.411)" fill="#003f5a"/>
  </g>
</svg>
