<svg xmlns="http://www.w3.org/2000/svg" width="294.776" height="263.524" viewBox="0 0 294.776 263.524">
  <g id="Team_goals-rafiki" data-name="Team goals-rafiki" transform="translate(-59.737 -81.344)">
    <g id="freepik--background-simple--inject-20" transform="translate(72.059 81.344)">
      <path id="Path_2975" data-name="Path 2975" d="M205.776,86.8c19.333-10.407,41.367-5.2,57.108,9.454,13.038,12.156,20.932,28.763,27.526,45.322,6.98,17.536,14.11,34.837,22.61,51.617,16.26,32.071,36.373,65.955,10.052,99.066A64.6,64.6,0,0,1,279.5,315.972c-28.967,2.694-54.461-17.466-83.278-17.009-41.659.67-89.888,21.964-112.789-26.935a87.468,87.468,0,0,1,5.515-83.4c18.277-28.9,56.422-37.9,77.89-64.931C177.6,110.222,190.548,94.993,205.776,86.8Z" transform="translate(-75.378 -81.344)" fill="#003f5a"/>
      <path id="Path_2976" data-name="Path 2976" d="M205.776,86.8c19.333-10.407,41.367-5.2,57.108,9.454,13.038,12.156,20.932,28.763,27.526,45.322,6.98,17.536,14.11,34.837,22.61,51.617,16.26,32.071,36.373,65.955,10.052,99.066A64.6,64.6,0,0,1,279.5,315.972c-28.967,2.694-54.461-17.466-83.278-17.009-41.659.67-89.888,21.964-112.789-26.935a87.468,87.468,0,0,1,5.515-83.4c18.277-28.9,56.422-37.9,77.89-64.931C177.6,110.222,190.548,94.993,205.776,86.8Z" transform="translate(-75.378 -81.344)" fill="#fff" opacity="0.9"/>
    </g>
    <g id="freepik--character-1--inject-20" transform="translate(59.737 138.034)">
      <g id="freepik--group--inject-20">
        <path id="Path_2977" data-name="Path 2977" d="M138.38,223.806l5.4-3.088s2.08-3.206,2.7-3.356,7.476,0,7.476,0-1.032,4.443-1.142,5.318-6.649,0-6.649,0l-5.294,3.151Z" transform="translate(-76.425 -166.883)" fill="#ebb376"/>
        <path id="Path_2978" data-name="Path 2978" d="M72.437,407.7l-5.656-1.127a.441.441,0,0,0-.433.347l-1.52,5.656a.788.788,0,0,0,.575.89h.165c2,0,3.458-.158,5.964-.158,1.576,0,6.208.165,8.343.165s2.419-2.111,1.576-2.3c-3.939-.859-6.87-2.04-8.122-3.151A1.245,1.245,0,0,0,72.437,407.7Z" transform="translate(-60.815 -207.047)" fill="#263238"/>
        <path id="Path_2979" data-name="Path 2979" d="M160.306,407.76h-6.176a.433.433,0,0,0-.433.347l-1.008,4.569a.788.788,0,0,0,.583.882h.165c2-.039,3.451-.158,5.964-.158,1.576,0,6.208.158,8.343.158s2.411-2.1,1.536-2.3c-3.939-.851-6.87-2.04-8.122-3.151a1.174,1.174,0,0,0-.851-.347Z" transform="translate(-79.459 -207.299)" fill="#263238"/>
        <path id="Path_2980" data-name="Path 2980" d="M83.613,273.883l26.155-6.633c5.932,12.951,27.7,66.128,32.977,110.371l-8.855,2.245s-15.677-65.246-28.826-84.295c0,0-.7,28.96-2.127,33.174-1.174,3.466-28.093,49.844-28.093,49.844l-8.745-.985s21.98-47.331,23.272-53.232c.914-4.018-3.088-33.529-3.088-33.529-.7-2.631-1.757-13.527-1.757-13.527S83.739,274.427,83.613,273.883Z" transform="translate(-61.087 -177.483)" fill="#003f5a"/>
        <path id="Path_2981" data-name="Path 2981" d="M115.129,300.663a72.682,72.682,0,0,1,5.79,10.572c-1.812-10.194-7.429-20.065-7.429-20.065Z" transform="translate(-71.143 -182.559)" opacity="0.2"/>
        <path id="Path_2982" data-name="Path 2982" d="M83.613,273.883l26.155-6.633c5.932,12.951,27.7,66.128,32.977,110.371l-8.855,2.245s-15.677-65.246-28.826-84.295c0,0-.7,28.96-2.127,33.174-1.174,3.466-28.093,49.844-28.093,49.844l-8.745-.985s21.98-47.331,23.272-53.232c.914-4.018-3.088-33.529-3.088-33.529-.7-2.631-1.757-13.527-1.757-13.527S83.739,274.427,83.613,273.883Z" transform="translate(-61.087 -177.483)" opacity="0.3"/>
        <path id="Path_2983" data-name="Path 2983" d="M137.717,225.2s-11.927,8.051-15.071,8.477a26.169,26.169,0,0,1-6.507-.788c-4.049-.867-8.272-2.08-8.272-2.08l-.528-3.994-.559-4.27c.945-.315,13.282,4.727,15.126,5.515s13.763-6.3,13.763-6.3Z" transform="translate(-69.719 -167.83)" fill="#263238"/>
        <path id="Path_2984" data-name="Path 2984" d="M96.951,273.33l.772,3.025-8.445,2.253-.788-3.135Z" transform="translate(-65.838 -178.773)"/>
        <path id="Path_2985" data-name="Path 2985" d="M112.8,269.04l.733,2.868L101.192,275.2l-.772-3.017Z" transform="translate(-68.37 -177.863)"/>
        <path id="Path_2986" data-name="Path 2986" d="M121.986,270.306l-3.931,1.048-.725-2.86,3.608-.914Z" transform="translate(-71.958 -177.553)"/>
        <rect id="Rectangle_962" data-name="Rectangle 962" width="5.026" height="3.624" transform="translate(42.591 94.797) rotate(165.77)" fill="#fff"/>
        <path id="Path_2987" data-name="Path 2987" d="M111.248,258.053l-26.328,6.681c-1.284-3.474-2.592-6.972-3.868-10.383-.937-2.5-1.859-4.947-2.757-7.319q-.339-.914-.685-1.8l-.788-2.1L75.135,238.7l-1.45-3.789-.685-1.8-1.3-3.388,27.644-7.011C108.459,238.626,111.248,258.053,111.248,258.053Z" transform="translate(-62.275 -168.034)" fill="#263238"/>
        <path id="Path_2988" data-name="Path 2988" d="M83.54,227.566c2.844,1.363,8.091-1.04,8.091-1.04s1.741-1.922.7-2.773c-2.111.276-1.977-.418-2.742-1.5a6.216,6.216,0,0,1-.882-2.237,12.651,12.651,0,0,1-.213-1.331l-8.3-2.978C82.083,218.751,85.006,224.51,83.54,227.566Z" transform="translate(-64.079 -166.546)" fill="#ebb376"/>
        <path id="Path_2989" data-name="Path 2989" d="M83.4,219.16a5.994,5.994,0,0,0,6.87,3.829,6.216,6.216,0,0,1-.882-2.237Z" transform="translate(-64.758 -167.279)" opacity="0.2"/>
        <path id="Path_2990" data-name="Path 2990" d="M95.448,200s2.166,6.539-.961,9.729-5.247-9.312-5.247-9.312Z" transform="translate(-65.997 -163.213)" fill="#263238"/>
        <path id="Path_2991" data-name="Path 2991" d="M83.189,216.677a6.184,6.184,0,0,0,7.4,1.166,6.9,6.9,0,0,0,3.34-3.837c.079-.221.15-.457.213-.693,1.056-4.4.394-11.675-4.4-13.629a6.7,6.7,0,0,0-9.241,6.7C80.779,211.288,80.716,214.171,83.189,216.677Z" transform="translate(-64.138 -163.038)" fill="#ebb376"/>
        <path id="Path_2992" data-name="Path 2992" d="M89.93,209.895c0,.394.2.717.473.717s.465-.323.473-.717-.213-.725-.473-.725S89.93,209.493,89.93,209.895Z" transform="translate(-66.144 -165.159)" fill="#263238"/>
        <path id="Path_2993" data-name="Path 2993" d="M95.65,209.9c0,.4.213.725.473.725s.465-.331.473-.725-.221-.717-.473-.717S95.65,209.519,95.65,209.9Z" transform="translate(-67.357 -165.161)" fill="#263238"/>
        <path id="Path_2994" data-name="Path 2994" d="M93.826,210.34a14.046,14.046,0,0,0,1.9,3.411,2.293,2.293,0,0,1-1.914.354Z" transform="translate(-66.967 -165.407)" fill="#d58745"/>
        <path id="Path_2995" data-name="Path 2995" d="M97.142,207.52a.268.268,0,0,1-.244,0,1.875,1.875,0,0,0-1.662-.315.232.232,0,1,1-.165-.433h0a2.3,2.3,0,0,1,2.1.37.228.228,0,0,1,.063.323h0a.41.41,0,0,1-.087.055Z" transform="translate(-67.203 -164.627)" fill="#263238"/>
        <path id="Path_2996" data-name="Path 2996" d="M88.748,207.554a.3.3,0,0,1-.126-.047.236.236,0,0,1,0-.331h0a2.316,2.316,0,0,1,2.072-.551.236.236,0,0,1,.158.284h0a.244.244,0,0,1-.291.165h0a1.851,1.851,0,0,0-1.623.457.236.236,0,0,1-.189.024Z" transform="translate(-65.852 -164.607)" fill="#263238"/>
        <path id="Path_2997" data-name="Path 2997" d="M83.472,200.6l.473.906c-1.576.607-1.182,2.466-.788,3.293.788,1.78-.118,4.64-1.45,5.83,0,0-.087-.788-.741-.567s-.276,4.3,1.111,6.192c0,0-2.04-1.678-3.348-5.916-1.205-3.939-1.489-7.224-.741-8.8Z" transform="translate(-63.522 -163.34)" fill="#263238"/>
        <path id="Path_2998" data-name="Path 2998" d="M77.7,212.6a4.656,4.656,0,0,0,2.671,2.363c1.576.52,2.363-.843,2.048-2.363-.331-1.331-1.52-3.262-3.151-3.112A2.08,2.08,0,0,0,77.7,212.6Z" transform="translate(-63.49 -165.224)" fill="#ebb376"/>
        <path id="Path_2999" data-name="Path 2999" d="M84.552,221.061c2.316,1.623,6.83,2.151,9.044-.788s1.5-7.657,1.5-7.657a7.35,7.35,0,0,1-1.418,2.883c-1.253-1.513-3.38-.654-3.38-.654a3.065,3.065,0,0,0-1.812-1.134c-1.032-.1-3.939.071-3.939.071-.93-.591-.969-3.222-.969-3.222l-.567.473S82.228,219.431,84.552,221.061Z" transform="translate(-64.649 -165.454)" fill="#263238"/>
        <path id="Path_3000" data-name="Path 3000" d="M89.613,200.728s5.515-2.679,4.861-5.357-2.261.378-2.261.378.741-2.033-.709-2.363-.993.969-1.78,1.749-8.429-.355-10.9,1.174-.583,6.814-.583,6.814a10.6,10.6,0,0,1,11.368-2.395Z" transform="translate(-63.518 -161.798)" fill="#263238"/>
        <path id="Path_3001" data-name="Path 3001" d="M84.552,221.061c2.316,1.623,6.83,2.151,9.044-.788s1.5-7.657,1.5-7.657a7.35,7.35,0,0,1-1.418,2.883c-1.253-1.513-3.38-.654-3.38-.654a3.065,3.065,0,0,0-1.812-1.134c-1.032-.1-3.939.071-3.939.071-.93-.591-.969-3.222-.969-3.222l-.567.473S82.228,219.431,84.552,221.061Z" transform="translate(-64.649 -165.454)" fill="#fff" opacity="0.2"/>
        <path id="Path_3002" data-name="Path 3002" d="M91.579,217.365a14.494,14.494,0,0,0-1.142,1.788l-.355-.134c-1.576-.575-2.143-1.363-2.269-2.072a2.237,2.237,0,0,1,.087-1.024,2.293,2.293,0,0,1,.244-.544,8.02,8.02,0,0,0,2.9,1.773C91.366,217.294,91.579,217.365,91.579,217.365Z" transform="translate(-65.689 -166.476)" fill="#263238"/>
        <path id="Path_3003" data-name="Path 3003" d="M91.073,217.163l-.355.52c-1.5-.544-2.482-1.127-2.789-1.749a2.292,2.292,0,0,1,.244-.544,8.02,8.02,0,0,0,2.9,1.773Z" transform="translate(-65.719 -166.479)" fill="#fff"/>
        <path id="Path_3004" data-name="Path 3004" d="M90.089,219.442c-1.576-.575-2.143-1.363-2.269-2.072a5.633,5.633,0,0,1,1.646.993,2.025,2.025,0,0,1,.622,1.079Z" transform="translate(-65.696 -166.899)" fill="#de5753"/>
        <path id="Path_3005" data-name="Path 3005" d="M94.385,229.45l-.465,4.081,8.508,18.127-.843,2.4-2.781-1.284-6.066-18.49L88.28,231.27l3.246-1.78Z" transform="translate(-65.794 -169.462)" fill="#003f5a"/>
        <path id="Path_3006" data-name="Path 3006" d="M84.035,225.509l5.633,2.324.228-3.813,4.152,1.024.355,5.806-3.994-1.631-1.67,3.718-7.1-4.743Z" transform="translate(-64.385 -168.31)" fill="#263238"/>
        <path id="Path_3007" data-name="Path 3007" d="M84.035,225.509l5.633,2.324.228-3.813,4.152,1.024.355,5.806-3.994-1.631-1.67,3.718-7.1-4.743Z" transform="translate(-64.385 -168.31)" fill="#fff" opacity="0.2"/>
        <path id="Path_3008" data-name="Path 3008" d="M77.161,245.893l-1.686-4.435-1.45-3.789-.685-1.8c.788-.386,2.8-.158,3.356.788C78.744,240.236,77.161,245.893,77.161,245.893Z" transform="translate(-62.623 -170.787)" opacity="0.2"/>
        <path id="Path_3009" data-name="Path 3009" d="M88.063,252.642a10.533,10.533,0,0,1-5.633,7.208c-.937-2.5-1.859-4.947-2.757-7.319q-.339-.914-.685-1.8l-.788-2.1,9.123,1.158Z" transform="translate(-63.655 -173.534)" opacity="0.2"/>
        <path id="Path_3010" data-name="Path 3010" d="M116.29,234.214c-4.049-.867-8.272-2.08-8.272-2.08l-.528-3.994S114.935,228.936,116.29,234.214Z" transform="translate(-69.87 -169.184)" opacity="0.2"/>
        <path id="Path_3011" data-name="Path 3011" d="M71.361,311.413a1.182,1.182,0,0,1-.788-2.1c13.148-10.793,12.9-27.707,12.652-44.07-.189-12.337-.362-24,5.444-31.922,8.146-11.14,40.911-28.81,46.338-29.314,3.884-.386,122.346-33.308,184.448-50.663a1.182,1.182,0,1,1,.638,2.277c-7.35,2.056-180,50.293-184.865,50.742-4.672.433-37.105,18.033-44.653,28.361-5.333,7.287-5.168,18.561-4.987,30.488.236,16.134.512,34.427-13.519,45.937A1.166,1.166,0,0,1,71.361,311.413Z" transform="translate(-61.944 -153.304)" fill="#263238"/>
        <g id="Group_9729" data-name="Group 9729" transform="translate(8.156 0.016)" opacity="0.4">
          <path id="Path_3012" data-name="Path 3012" d="M320.122,155.621l-16.2,4.538c-44.55,12.431-164.65,45.85-168.668,46.22-4.672.433-37.105,18.033-44.653,28.361-5.333,7.287-5.168,18.561-4.987,30.488.236,16.134.512,34.427-13.519,45.937a1.166,1.166,0,0,1-.788.268,1.182,1.182,0,0,1-.788-2.1c13.148-10.793,12.9-27.707,12.652-44.07-.189-12.337-.362-24,5.444-31.922,8.146-11.14,40.911-28.81,46.338-29.314,3.655-.362,108.606-29.5,172.749-47.394l11.7-3.269a1.182,1.182,0,0,1,.638,2.277Z" transform="translate(-70.09 -153.324)" fill="#fff"/>
        </g>
        <path id="Path_3013" data-name="Path 3013" d="M383.107,155.619l-16.2,4.538a21.116,21.116,0,0,1,3.86-3.529l11.7-3.269a1.182,1.182,0,1,1,.638,2.277Z" transform="translate(-124.919 -153.306)" opacity="0.2"/>
        <path id="Path_3014" data-name="Path 3014" d="M81.91,250.136l6.192-.544s3.238-2.048,3.86-1.914,6.791,3.151,6.791,3.151-2.8,3.6-3.261,4.349-6.035-2.781-6.035-2.781l-6.137.654Z" transform="translate(-64.442 -173.329)" fill="#ebb376"/>
        <path id="Path_3015" data-name="Path 3015" d="M69.154,231.62c-2.812,2.009-10.139,18.387-9.359,20.916s23.579-2.458,23.579-2.458l-1.008-4.262H70.1l2.915-4.6s1.8-1.749.693-5.814C72.911,232.471,69.154,231.62,69.154,231.62Z" transform="translate(-59.737 -169.923)" fill="#263238"/>
      </g>
    </g>
    <g id="freepik--character-3--inject-20" transform="translate(272.991 161.129)">
      <g id="freepik--group--inject-20-2" data-name="freepik--group--inject-20">
        <path id="Path_3016" data-name="Path 3016" d="M370.04,231.669l-4.672-2.214a51.765,51.765,0,0,0-3.057-5.247c-.693-.725-4.041,2.088-4.041,2.576s2.426,5.058,3.057,5.333a9.729,9.729,0,0,0,2.828,0l4.443,2.151Z" transform="translate(-336.339 -191.42)" fill="#9f5b53"/>
        <path id="Path_3017" data-name="Path 3017" d="M386.254,194.847l.937-3.348s1.481-4.364,1.324-5.373a26,26,0,0,0-1.119-3.506s-4.1,4.987-4.1,5.609,1.623,2.883,1.623,2.883l-.788,3.734Z" transform="translate(-341.651 -182.62)" fill="#9f5b53"/>
        <path id="Path_3018" data-name="Path 3018" d="M388.965,222.613s-3.529-4.388-4.569-8.469,2.1-17.332,2.1-17.332l-3.317-.882s-3.939,13.558-4.073,18.505,7.224,19.467,7.224,19.467Z" transform="translate(-340.761 -185.444)" fill="#003f5a"/>
        <path id="Path_3019" data-name="Path 3019" d="M387.533,239.208l-.5,2.151s-2.537-5-4.609-10.139a12.9,12.9,0,0,1,4.656,6.232,11.094,11.094,0,0,1,.457,1.757Z" transform="translate(-341.464 -192.933)" opacity="0.2"/>
        <path id="Path_3020" data-name="Path 3020" d="M406.693,239.415a19.032,19.032,0,0,1-.331,2.726c-.362,1.969-.977,4.294-1.678,6.854-.378,1.347-.788,2.789-1.15,4.309-1.757,6.83-2.71,9.548-4.01,18.269l-24.934-5.916a119.569,119.569,0,0,1,6.137-21.862c.725-1.883,1.576-3.766,2.434-5.625a57.2,57.2,0,0,1,4.845-8.351s4.034,3.687,16.7,5.9C406.244,235.957,406.772,237.3,406.693,239.415Z" transform="translate(-339.802 -192.636)" fill="#003f5a"/>
        <path id="Path_3021" data-name="Path 3021" d="M405.215,238.333c0,.788,2.986,4.538,2.8,5.515-.339.228-.741.481-1.2.788-8.437,4.908-19.506,2.419-24.422.9.725-1.883,2.363-5.341,3.214-7.2l5.916,1.316S401.2,237.443,405.215,238.333Z" transform="translate(-341.46 -194.397)" opacity="0.2"/>
        <path id="Path_3022" data-name="Path 3022" d="M397.849,231.7c.906-.347,8.343,1.5,7.791,1.662s-3.325,8.666-7.208,8.028S394.619,232.927,397.849,231.7Z" transform="translate(-344.233 -193.025)" fill="#003f5a"/>
        <path id="Path_3023" data-name="Path 3023" d="M353.753,405.761l-4.68,1.016-2.734-10.761L351.027,395Z" transform="translate(-333.808 -227.687)" fill="#9f5b53"/>
        <path id="Path_3024" data-name="Path 3024" d="M345.929,407.47h5.822a.41.41,0,0,1,.4.331l.945,4.262a.7.7,0,0,1-.544.843H352.4c-1.883,0-3.254-.15-5.617-.15-1.457,0-5.853.15-7.878.15s-2.269-1.985-1.45-2.166c3.695-.788,6.476-1.922,7.657-2.978A1.126,1.126,0,0,1,345.929,407.47Z" transform="translate(-331.829 -230.332)" fill="#263238"/>
        <path id="Path_3025" data-name="Path 3025" d="M346.006,408.21a1.457,1.457,0,0,1-.922-.244.662.662,0,0,1-.236-.607.339.339,0,0,1,.189-.323c.536-.276,2.08.677,2.253.788a.1.1,0,0,1,.055.11.11.11,0,0,1-.087.095A5.655,5.655,0,0,1,346.006,408.21Zm-.717-.993a.221.221,0,0,0-.142,0,.173.173,0,0,0-.079.134.465.465,0,0,0,.158.4,2.308,2.308,0,0,0,1.7.087,4.561,4.561,0,0,0-1.639-.622Z" transform="translate(-333.49 -230.23)" fill="#003f5a"/>
        <path id="Path_3026" data-name="Path 3026" d="M347.488,407.746h-.055c-.488-.268-1.45-1.323-1.355-1.828a.378.378,0,0,1,.37-.3.6.6,0,0,1,.481.15c.551.449.67,1.828.678,1.891a.11.11,0,0,1-.055.1A.063.063,0,0,1,347.488,407.746Zm-.961-1.946h-.055c-.15,0-.158.087-.165.118-.063.315.551,1.111,1.04,1.481a2.655,2.655,0,0,0-.544-1.481.378.378,0,0,0-.276-.118Z" transform="translate(-333.751 -229.939)" fill="#003f5a"/>
        <path id="Path_3027" data-name="Path 3027" d="M390.359,282.22s-4.041,19.27-13.5,24.422a10.051,10.051,0,0,1-3.506,1.19s-9.588,3.939-17.875,7.665c-5.042,2.277-9.6,4.5-11.234,5.743-4.317,3.285,6.255,54.571,6.255,54.571l-7.185.079s-15.118-45.409-12.6-57.328S360.359,288.4,360.359,288.4l4.175-11.486Z" transform="translate(-330.432 -202.628)" fill="#263238"/>
        <path id="Path_3028" data-name="Path 3028" d="M383.611,312.707a10.053,10.053,0,0,1-3.506,1.19s-9.588,3.939-17.875,7.665c5.333-9.808,14.842-16.181,14.842-16.181Z" transform="translate(-337.18 -208.67)" opacity="0.2"/>
        <path id="Path_3029" data-name="Path 3029" d="M430.213,405.761l-4.68,1.016L422.8,396.016,427.487,395Z" transform="translate(-350.033 -227.687)" fill="#9f5b53"/>
        <path id="Path_3030" data-name="Path 3030" d="M422.389,407.47h5.822a.41.41,0,0,1,.4.331l.945,4.262a.7.7,0,0,1-.544.843h-.158c-1.883,0-3.254-.15-5.617-.15-1.457,0-5.853.15-7.878.15s-2.269-1.985-1.45-2.166c3.695-.788,6.476-1.922,7.657-2.978A1.127,1.127,0,0,1,422.389,407.47Z" transform="translate(-348.053 -230.332)" fill="#263238"/>
        <path id="Path_3031" data-name="Path 3031" d="M422.466,408.21a1.457,1.457,0,0,1-.922-.244.662.662,0,0,1-.236-.607.339.339,0,0,1,.189-.323c.536-.276,2.08.677,2.253.788a.1.1,0,0,1,.055.11.11.11,0,0,1-.087.095,5.655,5.655,0,0,1-1.253.181Zm-.717-.993a.221.221,0,0,0-.142,0,.173.173,0,0,0-.079.134.465.465,0,0,0,.158.4,2.308,2.308,0,0,0,1.7.087,4.561,4.561,0,0,0-1.639-.622Z" transform="translate(-349.715 -230.23)" fill="#003f5a"/>
        <path id="Path_3032" data-name="Path 3032" d="M423.948,407.746h-.055c-.488-.268-1.45-1.323-1.355-1.828a.378.378,0,0,1,.37-.3.6.6,0,0,1,.481.15c.551.449.67,1.828.677,1.891a.11.11,0,0,1-.055.1A.063.063,0,0,1,423.948,407.746Zm-.961-1.946H422.9c-.15,0-.158.087-.165.118-.063.315.551,1.111,1.04,1.481a2.655,2.655,0,0,0-.567-1.5.378.378,0,0,0-.221-.1Z" transform="translate(-349.976 -229.939)" fill="#003f5a"/>
        <path id="Path_3033" data-name="Path 3033" d="M405.681,233.612c-1.174.788-6.586.488-6.586.488l-2.513,2.749-.244-4.546s-1.694-.7-1.229-1.19a4.435,4.435,0,0,0,3.261-1.1c1.1-1.071,1.308-2.8,1.292-4.506v-.063h0l4.624-2.363,3.2-1.646C405.98,224.686,403.829,230.775,405.681,233.612Z" transform="translate(-344.139 -190.858)" fill="#9f5b53"/>
        <path id="Path_3034" data-name="Path 3034" d="M406.706,224.605a10.031,10.031,0,0,1-7.476,5.845c1.1-1.071,1.308-2.8,1.292-4.506a.222.222,0,0,0,0-.071l4.624-2.363C405.154,224.14,406.927,224.014,406.706,224.605Z" transform="translate(-345.031 -191.297)" opacity="0.2"/>
        <path id="Path_3035" data-name="Path 3035" d="M409.9,219.32s3,1.576,4-.307-.425-1.993,1.048-2.671,3.569-1.15,3.088-2.576-1.969-1.576-.315-3.151,2.017-3.8-.457-4.23-1.528-2.363-1.654-3.151-1.513-1.339-3.017-1.024-2.135-1.914-3.065-2.608-2.214.158-2.552,1.1-1.229-.307-2.552-.465-1.016,1.237-1.426,2.537-1.221.457-2.166,1.528S399.8,212.679,409.9,219.32Z" transform="translate(-345.285 -186.17)" fill="#263238"/>
        <path id="Path_3036" data-name="Path 3036" d="M410.048,216.287c-2.261,3.545-3.545,5.885-6.082,7.035a7.539,7.539,0,0,1-1.056.394c-4.932,1.45-9-3.3-7.7-8a16.24,16.24,0,0,1,.945-2.474c1.765-3.695,5.16-7.476,9.217-6.98a6.484,6.484,0,0,1,5.7,7.193,6.571,6.571,0,0,1-1.032,2.836Z" transform="translate(-344.127 -187.627)" fill="#9f5b53"/>
        <path id="Path_3037" data-name="Path 3037" d="M405.051,215.765c-.165.355-.52.512-.741.394s-.244-.5-.063-.835.528-.512.741-.394S405.24,215.442,405.051,215.765Z" transform="translate(-346.07 -189.469)" fill="#263238"/>
        <path id="Path_3038" data-name="Path 3038" d="M400.2,213.094a.6.6,0,0,1-.741.386c-.213-.126-.244-.5-.055-.835s.52-.512.741-.386S400.383,212.771,400.2,213.094Z" transform="translate(-345.042 -188.901)" fill="#263238"/>
        <path id="Path_3039" data-name="Path 3039" d="M401.012,214.4a13.977,13.977,0,0,1-3.222,1.985,2.222,2.222,0,0,0,1.45,1.205Z" transform="translate(-344.725 -189.364)" fill="#892b29"/>
        <path id="Path_3040" data-name="Path 3040" d="M407.681,214.522a.236.236,0,0,1-.221-.087,1.8,1.8,0,0,0-1.434-.788.228.228,0,1,1,0-.449h0a2.222,2.222,0,0,1,1.82.969.221.221,0,0,1-.039.315h0a.276.276,0,0,1-.126.039Z" transform="translate(-346.416 -189.108)" fill="#263238"/>
        <path id="Path_3041" data-name="Path 3041" d="M400.77,220.934h0a3.458,3.458,0,0,0,3.151-.528.126.126,0,0,0,0-.165.118.118,0,0,0-.165,0h0a3.332,3.332,0,0,1-2.946.473.1.1,0,0,0-.142.071h0a.1.1,0,0,0,.071.142Z" transform="translate(-345.334 -190.596)" fill="#263238"/>
        <path id="Path_3042" data-name="Path 3042" d="M400,209.109a.252.252,0,0,1,0-.134.229.229,0,0,1,.3-.11h0a2.253,2.253,0,0,1,1.292,1.631.228.228,0,0,1-.2.252h0a.228.228,0,0,1-.252-.2h0a1.82,1.82,0,0,0-1.04-1.268A.252.252,0,0,1,400,209.109Z" transform="translate(-345.192 -188.185)" fill="#263238"/>
        <path id="Path_3043" data-name="Path 3043" d="M404.12,205.9c1.15.142,1.717,1.576,1.717,1.576a25.746,25.746,0,0,1,4.018,1.875,2.71,2.71,0,0,1,.93,2.7c-.039.378-.969.725-.969.725s-1.7,4.018-2.166,5.129l.236,3.711a19.624,19.624,0,0,0,7.224-8.138c2.686-5.593-8.524-10.517-8.524-10.517Z" transform="translate(-346.069 -186.936)" fill="#263238"/>
        <path id="Path_3044" data-name="Path 3044" d="M412.018,225.093a4.522,4.522,0,0,1-3.427.378c-1.52-.457-1.434-2.017-.307-3.017,1.008-.867,3.033-1.725,4.207-.717a2.009,2.009,0,0,1-.473,3.356Z" transform="translate(-346.774 -190.824)" fill="#9f5b53"/>
        <path id="Path_3045" data-name="Path 3045" d="M404.635,233.372l-6.263,1.8-2.7,3.663.733-4.483s-.67-1.032.441-2.647l-3.813.788-2.3,3.844,4.475-1.048.307,4.467,2.608-3.072,2.135,3.372,6.35-4.026Z" transform="translate(-343.227 -193.037)" fill="#003f5a"/>
        <path id="Path_3046" data-name="Path 3046" d="M404.635,233.372l-6.263,1.8-2.7,3.663.733-4.483s-.67-1.032.441-2.647l-3.813.788-2.3,3.844,4.475-1.048.307,4.467,2.608-3.072,2.135,3.372,6.35-4.026Z" transform="translate(-343.227 -193.037)" opacity="0.2"/>
        <path id="Path_3047" data-name="Path 3047" d="M374.747,272l-.977,3.892,25.777,5.286.386-4.325Z" transform="translate(-339.628 -201.586)"/>
        <path id="Path_3048" data-name="Path 3048" d="M387.62,274.266c-.2-.291-5.94-1.528-6.484-1.119,0,0-1.111,3.837-.922,4.238s5.767,1.182,6.3,1.292S387.824,274.589,387.62,274.266Zm-1.576,3.939c-.425-.087-5.01-.725-5.168-1.056a18.713,18.713,0,0,1,.788-3.482c.449-.339,5.16.677,5.326.914s-.52,3.671-.945,3.585Z" transform="translate(-340.991 -201.812)" fill="#fff"/>
        <path id="Path_3049" data-name="Path 3049" d="M387.456,276.184l-1.142-.236a.425.425,0,0,0-.488.3h0a.425.425,0,0,0,.331.536L387.3,277a.426.426,0,1,0,.165-.835Z" transform="translate(-342.183 -202.422)" fill="#fff"/>
        <path id="Path_3050" data-name="Path 3050" d="M400.916,283.65s.5,29.149-.323,37.657,20.42,55.075,20.42,55.075h-6.878s-20.837-34.1-25.611-44.59-8.3-35.53-8.3-35.53Z" transform="translate(-340.997 -204.058)" fill="#263238"/>
        <path id="Path_3051" data-name="Path 3051" d="M405.483,237.758c-1.064-2.411-17.395,1.158-18.868.741s-16.8-6.838-16.8-6.838l-1.331,3.419s13.747,7.878,16.757,9.123,15.039.646,18.119-.685a4.238,4.238,0,0,0,2.127-5.759Z" transform="translate(-338.506 -193.026)" fill="#003f5a"/>
      </g>
    </g>
    <g id="freepik--Arrow--inject-20" transform="translate(88.604 111.742)">
      <path id="Path_3052" data-name="Path 3052" d="M344.852,151.442l-4.947-31.512-26.06,18.427,8.666,3.671C314.144,161.2,287,217.381,240.3,258.8c-59.629,52.9-143.088,78.93-143.923,79.182L101,353.056c3.545-1.087,87.509-27.242,149.793-82.491,49.631-44.022,77.535-102.083,86.3-122.409Z" transform="translate(-96.38 -119.93)" fill="#003f5a"/>
      <path id="Path_3053" data-name="Path 3053" d="M340.126,145.927l-.221-26-26.06,18.427,8.666,3.671C314.144,161.2,287,217.381,240.3,258.8c-59.629,52.9-143.088,78.93-143.923,79.182l1.465,9.556c3.545-1.087,87.509-24.879,149.793-80.127,49.631-44.022,75.96-102.871,84.72-123.2Z" transform="translate(-96.38 -119.93)" fill="#fff" opacity="0.4"/>
      <path id="Path_3054" data-name="Path 3054" d="M395.588,159.661a1.158,1.158,0,0,1-.362-.055l-15.134-4.892a1.182,1.182,0,1,1,.725-2.245l15.134,4.884a1.182,1.182,0,0,1-.362,2.308Z" transform="translate(-156.395 -126.818)" fill="#263238"/>
      <g id="Group_9730" data-name="Group 9730" transform="translate(222.811 25.57)" opacity="0.4">
        <path id="Path_3055" data-name="Path 3055" d="M395.588,159.661a1.158,1.158,0,0,1-.362-.055l-15.134-4.892a1.182,1.182,0,1,1,.725-2.245l15.134,4.884a1.182,1.182,0,0,1-.362,2.308Z" transform="translate(-379.206 -152.388)" fill="#fff"/>
      </g>
    </g>
  </g>
</svg>
